<svg xmlns="http://www.w3.org/2000/svg" viewBox="0 0 1080 1527" width="1080" height="1527" role="img" aria-label="Retro and optimistic · Rye &amp; Rise"><style>@import url("https://fonts.googleapis.com/css2?family=Nunito:wght@700;800&family=Nunito+Sans:wght@400;600;700&family=JetBrains+Mono:wght@400;500&display=swap");</style><g class="rr-retro-optimistic-3-el rr-retro-optimistic-3-ground"><rect width="1080" height="1527" fill="#f37420"/><path d="M921.1 1481.2 l15.5 -18.6 l15.5 18.6 l15.5 -18.6 l15.5 18.6" stroke="#111314" stroke-width="9.1" fill="none" stroke-linecap="round" stroke-linejoin="round"/><path d="M769.8 1390.5 l21.2 35.3 h-42.4z" fill="#ffffff" stroke="#111314" stroke-width="9.1" stroke-linejoin="round"/><path d="M858 952.3 c13.4 -20.1, 26.5 20.1, 40.1 0 s26.5 20.1, 40.1 0" stroke="#111314" stroke-width="9.1" fill="none" stroke-linecap="round"/><circle cx="1010.6" cy="1110.4" r="11.5" fill="#111314"/><g transform="rotate(-3 189 1182.6)"><rect x="72.8" y="1160.5" width="256.1" height="67.9" rx="33.9" fill="#111314"/><rect x="60.9" y="1148.6" width="256.1" height="67.9" rx="33.9" fill="#ffffff" stroke="#111314" stroke-width="10.4"/></g></g><g class="rr-retro-optimistic-3-el rr-retro-optimistic-3-art"><g transform="translate(167.6 86.4) scale(1.8622)"><circle cx="211.1353569331371" cy="225.1353569331371" r="158" fill="#111314"/><circle cx="200" cy="214" r="158" fill="#f37420"/><clipPath id="rr-retro-optimistic-3-b0c"><circle cx="200" cy="214" r="158"/></clipPath><g clip-path="url(#rr-retro-optimistic-3-b0c)"><circle cx="262" cy="168" r="84" fill="#ffffff" stroke="#111314" stroke-width="6.959598083210696"/><clipPath id="rr-retro-optimistic-3-b0s"><circle cx="262" cy="168" r="80.52020095839465"/></clipPath><g clip-path="url(#rr-retro-optimistic-3-b0s)"><rect x="174" y="176" width="176" height="4" fill="#f37420"/><rect x="174" y="190" width="176" height="6.6" fill="#f37420"/><rect x="174" y="205.6" width="176" height="9.2" fill="#f37420"/><rect x="174" y="222.8" width="176" height="11.8" fill="#f37420"/><rect x="174" y="241.6" width="176" height="14.4" fill="#f37420"/></g><circle cx="339.4" cy="72.8" r="2.3" fill="#ffffff"/><circle cx="174.8" cy="123.5" r="1.4" fill="#ffffff"/><circle cx="326.5" cy="88.4" r="2" fill="#ffffff"/><circle cx="143.1" cy="169.1" r="2.1" fill="#ffffff"/><circle cx="149.5" cy="126.7" r="1.5" fill="#ffffff"/><circle cx="221.5" cy="256.3" r="0.9" fill="#ffffff"/><circle cx="195" cy="67.8" r="1.5" fill="#ffffff"/><circle cx="258.5" cy="262.9" r="0.9" fill="#ffffff"/><circle cx="380.5" cy="177.9" r="2.1" fill="#ffffff"/><circle cx="324.1" cy="242.8" r="1.3" fill="#ffffff"/><circle cx="239.6" cy="77.1" r="1.1" fill="#ffffff"/><circle cx="336.9" cy="219.7" r="1.2" fill="#ffffff"/><circle cx="379.8" cy="175.3" r="1.5" fill="#ffffff"/><circle cx="182.1" cy="96.1" r="1.5" fill="#ffffff"/><circle cx="192.1" cy="233.9" r="1.1" fill="#ffffff"/><circle cx="354.2" cy="159" r="1.3" fill="#ffffff"/><circle cx="179.4" cy="121.9" r="1.1" fill="#ffffff"/><circle cx="333" cy="239.6" r="2.2" fill="#ffffff"/><circle cx="148.9" cy="117.5" r="1" fill="#ffffff"/><circle cx="334.3" cy="99.8" r="2.1" fill="#ffffff"/><circle cx="294.1" cy="272" r="1.5" fill="#ffffff"/><circle cx="169.4" cy="232.4" r="1.6" fill="#ffffff"/><circle cx="252.3" cy="258.7" r="1.2" fill="#ffffff"/><circle cx="153" cy="202.6" r="2.2" fill="#ffffff"/><circle cx="360" cy="220" r="2.4" fill="#ffffff"/><circle cx="276.8" cy="269.4" r="1.8" fill="#ffffff"/><circle cx="334.8" cy="236.6" r="1.4" fill="#ffffff"/><circle cx="159.9" cy="192.4" r="2.1" fill="#ffffff"/><circle cx="365.5" cy="189.5" r="1.2" fill="#ffffff"/><circle cx="217.3" cy="85" r="2" fill="#ffffff"/><circle cx="276.6" cy="77.9" r="2.1" fill="#ffffff"/><circle cx="221.9" cy="276.3" r="2.1" fill="#ffffff"/><circle cx="264" cy="268.1" r="2" fill="#ffffff"/><circle cx="271.2" cy="258.7" r="2.1" fill="#ffffff"/><circle cx="342.9" cy="104.3" r="1.9" fill="#ffffff"/><circle cx="353.4" cy="200.5" r="1" fill="#ffffff"/><circle cx="302.5" cy="82.3" r="2.1" fill="#ffffff"/><circle cx="313.6" cy="93.1" r="1.6" fill="#ffffff"/><circle cx="367.1" cy="230.4" r="1.4" fill="#ffffff"/><circle cx="214.1" cy="259.9" r="1.5" fill="#ffffff"/><circle cx="291.6" cy="73.2" r="1" fill="#ffffff"/><circle cx="328" cy="88.3" r="1" fill="#ffffff"/><circle cx="228.1" cy="82.3" r="2.3" fill="#ffffff"/><circle cx="311.5" cy="82.7" r="2" fill="#ffffff"/><circle cx="335.2" cy="222.4" r="1.6" fill="#ffffff"/><circle cx="192.8" cy="229.3" r="1.1" fill="#ffffff"/><circle cx="196.6" cy="265.5" r="1.1" fill="#ffffff"/><circle cx="372.2" cy="130.8" r="1.8" fill="#ffffff"/><circle cx="362.8" cy="188.3" r="1.8" fill="#ffffff"/><circle cx="314.3" cy="93.2" r="1.1" fill="#ffffff"/><circle cx="266.4" cy="278.8" r="1.1" fill="#ffffff"/><circle cx="154.2" cy="146.3" r="2.1" fill="#ffffff"/><circle cx="268.7" cy="49.8" r="1.6" fill="#ffffff"/><circle cx="190.6" cy="244.7" r="2.2" fill="#ffffff"/><circle cx="175.3" cy="90.5" r="2.4" fill="#ffffff"/><circle cx="174.7" cy="128.1" r="1.2" fill="#ffffff"/><circle cx="372.7" cy="186" r="1.5" fill="#ffffff"/><circle cx="360.8" cy="131.8" r="1.1" fill="#ffffff"/><circle cx="141.8" cy="164" r="1.7" fill="#ffffff"/><circle cx="158" cy="153.4" r="1.3" fill="#ffffff"/><circle cx="245.2" cy="77.9" r="1.5" fill="#ffffff"/><circle cx="235.8" cy="264.2" r="1.7" fill="#ffffff"/><circle cx="166.5" cy="89.4" r="2.3" fill="#ffffff"/><circle cx="358.4" cy="103.7" r="1.1" fill="#ffffff"/><circle cx="217.9" cy="87.4" r="1.9" fill="#ffffff"/><circle cx="226.3" cy="69.4" r="1.7" fill="#ffffff"/><circle cx="225.2" cy="68.8" r="1.8" fill="#ffffff"/><circle cx="354.1" cy="176.5" r="1.7" fill="#ffffff"/><circle cx="275.4" cy="259.6" r="1.8" fill="#ffffff"/><circle cx="178.9" cy="220.4" r="1.6" fill="#ffffff"/><circle cx="262.1" cy="47.5" r="1.3" fill="#ffffff"/><circle cx="344.5" cy="206.5" r="2.3" fill="#ffffff"/><circle cx="315.6" cy="93.7" r="2" fill="#ffffff"/><circle cx="205.2" cy="96.5" r="1.1" fill="#ffffff"/><circle cx="377.5" cy="167.5" r="1.2" fill="#ffffff"/><circle cx="251.2" cy="77.6" r="1.4" fill="#ffffff"/><circle cx="251.6" cy="268" r="1.2" fill="#ffffff"/><circle cx="359" cy="198.8" r="1.5" fill="#ffffff"/><circle cx="304.3" cy="80.4" r="1.9" fill="#ffffff"/><circle cx="213.6" cy="249.4" r="1" fill="#ffffff"/><circle cx="222.7" cy="250.3" r="1.6" fill="#ffffff"/><circle cx="151" cy="192.6" r="2.1" fill="#ffffff"/><circle cx="185.2" cy="98.1" r="1.3" fill="#ffffff"/><circle cx="276.8" cy="54.5" r="1.4" fill="#ffffff"/><circle cx="373.5" cy="141.3" r="1.4" fill="#ffffff"/><circle cx="165.4" cy="98" r="1.5" fill="#ffffff"/><circle cx="155.6" cy="186" r="0.9" fill="#ffffff"/><circle cx="195.9" cy="96.4" r="1.5" fill="#ffffff"/><circle cx="195.4" cy="230.6" r="2.2" fill="#ffffff"/><circle cx="184.4" cy="107.2" r="2.2" fill="#ffffff"/><path d="M20 420 L20 280 C 40 236, 96 214, 140 228 C 176 240, 186 270, 166 284 C 150 296, 128 286, 134 268 C 156 300, 196 320, 252 324 C 316 330, 364 320, 420 312 L420 420Z" fill="#b73f74" stroke="#111314" stroke-width="6.959598083210696" stroke-linejoin="round"/><path d="M54 330 C 90 318, 120 334, 148 360 M84 366 C 120 352, 150 366, 176 388" stroke="#111314" stroke-width="4.175758849926417" fill="none" stroke-linecap="round"/><circle cx="24" cy="278" r="14.8" fill="#111314"/><circle cx="40" cy="264.1" r="13.6" fill="#111314"/><circle cx="56" cy="251.8" r="14" fill="#111314"/><circle cx="72" cy="242.4" r="13.3" fill="#111314"/><circle cx="88" cy="237.2" r="13.9" fill="#111314"/><circle cx="104" cy="236.7" r="14.2" fill="#111314"/><circle cx="120" cy="241" r="13.3" fill="#111314"/><circle cx="136" cy="249.8" r="16" fill="#111314"/><circle cx="152" cy="262" r="13.3" fill="#111314"/><circle cx="24" cy="278" r="11.4" fill="#ffffff"/><circle cx="40" cy="264.1" r="10.1" fill="#ffffff"/><circle cx="56" cy="251.8" r="10.5" fill="#ffffff"/><circle cx="72" cy="242.4" r="9.8" fill="#ffffff"/><circle cx="88" cy="237.2" r="10.4" fill="#ffffff"/><circle cx="104" cy="236.7" r="10.7" fill="#ffffff"/><circle cx="120" cy="241" r="9.9" fill="#ffffff"/><circle cx="136" cy="249.8" r="12.5" fill="#ffffff"/><circle cx="152" cy="262" r="9.8" fill="#ffffff"/></g><circle cx="200" cy="214" r="158" fill="none" stroke="#111314" stroke-width="8.351517699852835"/><g transform="rotate(-10 200 352)"><rect x="47.13535693313712" y="349.13535693313713" width="328" height="30" fill="#111314"/><rect x="36" y="338" width="328" height="30" fill="#ffffff"/><rect x="36" y="338" width="15" height="15" fill="#111314"/><rect x="51" y="353" width="15" height="15" fill="#111314"/><rect x="66" y="338" width="15" height="15" fill="#111314"/><rect x="81" y="353" width="15" height="15" fill="#111314"/><rect x="96" y="338" width="15" height="15" fill="#111314"/><rect x="111" y="353" width="15" height="15" fill="#111314"/><rect x="126" y="338" width="15" height="15" fill="#111314"/><rect x="141" y="353" width="15" height="15" fill="#111314"/><rect x="156" y="338" width="15" height="15" fill="#111314"/><rect x="171" y="353" width="15" height="15" fill="#111314"/><rect x="186" y="338" width="15" height="15" fill="#111314"/><rect x="201" y="353" width="15" height="15" fill="#111314"/><rect x="216" y="338" width="15" height="15" fill="#111314"/><rect x="231" y="353" width="15" height="15" fill="#111314"/><rect x="246" y="338" width="15" height="15" fill="#111314"/><rect x="261" y="353" width="15" height="15" fill="#111314"/><rect x="276" y="338" width="15" height="15" fill="#111314"/><rect x="291" y="353" width="15" height="15" fill="#111314"/><rect x="306" y="338" width="15" height="15" fill="#111314"/><rect x="321" y="353" width="15" height="15" fill="#111314"/><rect x="336" y="338" width="15" height="15" fill="#111314"/><rect x="351" y="353" width="13" height="15" fill="#111314"/><rect x="36" y="338" width="328" height="30" fill="none" stroke="#111314" stroke-width="6.3"/></g><g transform="translate(214 236) rotate(-12) scale(1.05)"><ellipse cx="0" cy="34" rx="80" ry="14" fill="#ffffff" stroke="#111314" stroke-width="6.628188650676853"/><path d="M-68 34 H68" stroke="#ffffff" stroke-width="3.9769131904061115" stroke-linecap="round"/><path d="M-40 6 C -62 0, -72 -14, -64 -26" stroke="#111314" stroke-width="6.628188650676853" fill="none" stroke-linecap="round"/><g fill="#111314"><ellipse cx="-12" cy="2" rx="37.314094325338424" ry="25.314094325338427"/><ellipse cx="-34" cy="24" rx="15.314094325338427" ry="11.314094325338427"/><ellipse cx="14" cy="24" rx="15.314094325338427" ry="11.314094325338427"/><circle cx="20" cy="-36" r="31.314094325338427"/><ellipse cx="46" cy="-28" rx="23.314094325338427" ry="17.314094325338427"/></g><g fill="#ffffff"><ellipse cx="-12" cy="2" rx="34" ry="22"/><ellipse cx="-34" cy="24" rx="12" ry="8"/><ellipse cx="14" cy="24" rx="12" ry="8"/><circle cx="20" cy="-36" r="28"/><ellipse cx="46" cy="-28" rx="20" ry="14"/></g><circle cx="-22" cy="-6" r="9" fill="#ffffff"/><path d="M2 -60 C -26 -66, -40 -44, -30 -22 C -22 -34, -12 -44, 6 -46Z" fill="#111314"/><circle cx="64" cy="-34" r="7" fill="#111314"/><path d="M40 -18 C 48 -12, 58 -14, 62 -20" stroke="#111314" stroke-width="3.9769131904061115" fill="none" stroke-linecap="round"/><path d="M50 -16 C 50 -4, 60 -4, 59 -17Z" fill="#ffffff" stroke="#111314" stroke-width="3.3140943253384263" stroke-linejoin="round"/><path d="M6 -44 H52" stroke="#111314" stroke-width="5.302550920541482" stroke-linecap="round"/><rect x="6" y="-47" width="22" height="16" rx="6" fill="#111314"/><rect x="32" y="-47" width="22" height="16" rx="6" fill="#111314"/><path d="M11 -42 L17 -42 M37 -42 L43 -42" stroke="#ffffff" stroke-width="3.3140943253384263" stroke-linecap="round"/></g></g></g><g class="rr-retro-optimistic-3-el rr-retro-optimistic-3-headline"><g transform="rotate(-5 86.4 1020.8)"><text font-family="'Nunito', sans-serif" font-weight="800" font-size="85.2" letter-spacing="0.9" text-anchor="start" fill="#111314" stroke="#111314" stroke-width="13.6" stroke-linejoin="round" paint-order="stroke"><tspan x="99.2" y="985">Retro and</tspan><tspan x="99.2" y="1077">optimistic</tspan></text><text font-family="'Nunito', sans-serif" font-weight="800" font-size="85.2" letter-spacing="0.9" text-anchor="start" fill="#ffffff" stroke="#111314" stroke-width="13.6" stroke-linejoin="round" paint-order="stroke"><tspan x="93.2" y="979">Retro and</tspan><tspan x="93.2" y="1071.1">optimistic</tspan></text></g></g><g class="rr-retro-optimistic-3-el rr-retro-optimistic-3-subhead"><path d="M68.1 1227.2 H629.1 l-22.8 55.9 l22.8 55.9 H68.1 Z" fill="#111314"/><text font-family="'Nunito Sans', sans-serif" font-weight="700" font-size="38.0" letter-spacing="0.00" fill="#ffffff" text-anchor="start"><tspan x="86.4" y="1270.2">Nostalgia, consumer</tspan><tspan x="86.4" y="1316.6">launches, hospitality, events.</tspan></text></g><g class="rr-retro-optimistic-3-el rr-retro-optimistic-3-brand"><text x="86.4" y="1194.4" font-family="'Nunito Sans', sans-serif" font-weight="700" font-size="42.4" letter-spacing="0.00" fill="#111314">Rye &amp; Rise</text></g><g class="rr-retro-optimistic-3-el rr-retro-optimistic-3-cta"><g transform="rotate(-3 278 1400)"><rect x="98.3" y="1380.1" width="383.2" height="63.5" rx="31.7" fill="#111314"/><rect x="86.4" y="1368.2" width="383.2" height="63.5" rx="31.7" fill="#ffffff" stroke="#111314" stroke-width="10.4"/></g><text transform="rotate(-3 278 1400)" x="278" y="1409.9" text-anchor="middle" font-family="'Nunito', sans-serif" font-weight="800" font-size="27.6" letter-spacing="0.6" fill="#111314">Recipe retro-optimistic-3</text></g></svg>
