<svg xmlns="http://www.w3.org/2000/svg" viewBox="0 0 1080 1527" width="1080" height="1527" role="img" aria-label="Human and handmade · Rye &amp; Rise"><style>@import url("https://fonts.googleapis.com/css2?family=Boogaloo:wght@400&family=Jost:wght@400;500;700&family=Courier+Prime:wght@400;700&family=Yellowtail:wght@400&display=swap");</style><defs></defs><g class="rr-human-handmade-1-el rr-human-handmade-1-ground"><rect width="1080" height="1527" fill="#f8ed43"/><g fill="#ffffff"><circle cx="620.1" cy="177.6" r="2"/><circle cx="332" cy="330.8" r="2"/><circle cx="98.6" cy="97.5" r="2.2"/><circle cx="412.4" cy="337" r="2.2"/><circle cx="974.8" cy="1222.5" r="1.7"/><circle cx="247.4" cy="390" r="1.4"/><circle cx="379.6" cy="217.1" r="1.8"/><circle cx="661.4" cy="522.4" r="1.7"/><circle cx="587.9" cy="203.6" r="2.1"/><circle cx="815.9" cy="697.4" r="1.1"/><circle cx="1079.5" cy="756.2" r="2"/><circle cx="998.8" cy="499.7" r="1.7"/><circle cx="457" cy="1470.9" r="1.2"/><circle cx="61" cy="524.5" r="1.1"/><circle cx="370.8" cy="609.2" r="1.3"/><circle cx="1034.8" cy="1203.2" r="2.1"/><circle cx="739.9" cy="80" r="2.2"/><circle cx="557.7" cy="43.5" r="1"/><circle cx="307.4" cy="159.3" r="1.1"/><circle cx="891.6" cy="590.9" r="2"/><circle cx="664.1" cy="278.3" r="1.6"/><circle cx="480.3" cy="467.8" r="2.2"/><circle cx="679.5" cy="23.8" r="1.3"/><circle cx="903.1" cy="540.5" r="1.8"/><circle cx="205.7" cy="821.8" r="2"/><circle cx="1013.3" cy="590.9" r="2.2"/><circle cx="1041.8" cy="728.3" r="1.1"/><circle cx="666.8" cy="122" r="1.4"/><circle cx="589.8" cy="865.4" r="2.1"/><circle cx="913" cy="633.5" r="1.2"/><circle cx="818.3" cy="1160.8" r="2"/><circle cx="390.2" cy="613.4" r="1.1"/><circle cx="797.1" cy="818.7" r="1.6"/><circle cx="1058.4" cy="696.4" r="1.6"/><circle cx="471.3" cy="542.1" r="2"/><circle cx="454.8" cy="137.5" r="1.8"/><circle cx="666.8" cy="682.4" r="1.3"/><circle cx="374.7" cy="37.3" r="1.5"/><circle cx="879.3" cy="579.3" r="1.3"/><circle cx="647.6" cy="1491.4" r="2.1"/><circle cx="79.8" cy="877.5" r="2"/><circle cx="703" cy="697.5" r="1"/><circle cx="1019.1" cy="410.7" r="2.1"/><circle cx="283.9" cy="553.2" r="1.7"/><circle cx="188.3" cy="597.8" r="2.2"/><circle cx="391" cy="220.9" r="2.2"/><circle cx="101.4" cy="462.9" r="2.2"/><circle cx="114.8" cy="22.8" r="1.2"/><circle cx="990.1" cy="970.5" r="1.7"/><circle cx="866.9" cy="576.3" r="1.8"/><circle cx="373.7" cy="312.9" r="2"/><circle cx="1074.4" cy="1227.3" r="1.7"/><circle cx="700.6" cy="1487.8" r="1.8"/><circle cx="139.8" cy="481" r="2"/><circle cx="1076.8" cy="363.8" r="2.1"/><circle cx="817.6" cy="25.4" r="2.1"/><circle cx="778.8" cy="728.2" r="1.4"/><circle cx="913.4" cy="664.8" r="1.2"/><circle cx="894.5" cy="532.6" r="1.3"/><circle cx="788.3" cy="872.7" r="2"/><circle cx="47.1" cy="1392.4" r="1.6"/><circle cx="142.3" cy="328" r="2"/><circle cx="209.8" cy="118.6" r="1.7"/><circle cx="62.7" cy="1026.5" r="1.5"/><circle cx="936.6" cy="1294.1" r="1.7"/><circle cx="434.5" cy="468.4" r="1.7"/><circle cx="681.5" cy="393.5" r="2.2"/><circle cx="986.8" cy="493" r="2.3"/><circle cx="966.9" cy="837.7" r="1.2"/><circle cx="372.9" cy="384.4" r="1.5"/><circle cx="1049.3" cy="888" r="1.3"/><circle cx="693.1" cy="621.6" r="1.2"/><circle cx="691.8" cy="1289.4" r="1.7"/><circle cx="24.3" cy="739.6" r="1.8"/><circle cx="910.5" cy="1191.6" r="1.3"/><circle cx="152.7" cy="299.6" r="1.2"/><circle cx="416.8" cy="1508.1" r="2"/><circle cx="618.7" cy="282.4" r="2.1"/><circle cx="592.6" cy="1177.3" r="1.6"/><circle cx="192.5" cy="710.9" r="1.9"/><circle cx="171.3" cy="731.4" r="1.8"/><circle cx="200" cy="14.7" r="1.6"/><circle cx="519.5" cy="248.9" r="1.2"/><circle cx="897.4" cy="0.9" r="1.9"/><circle cx="817.9" cy="861.2" r="1.9"/><circle cx="172.8" cy="836.2" r="1.6"/><circle cx="220.4" cy="766.5" r="2"/><circle cx="919.5" cy="410.9" r="1.7"/><circle cx="306.5" cy="564.2" r="1.1"/><circle cx="899.9" cy="719.8" r="1"/><circle cx="563.1" cy="1447.9" r="2"/><circle cx="769.1" cy="169.7" r="1.6"/><circle cx="223.2" cy="560.7" r="2.1"/><circle cx="838.1" cy="1461.8" r="1.5"/><circle cx="121.7" cy="1453.8" r="2"/><circle cx="369.1" cy="789.5" r="2"/><circle cx="556.5" cy="350" r="1.5"/><circle cx="216" cy="200.3" r="2"/><circle cx="866.2" cy="880.5" r="1.5"/><circle cx="656.1" cy="838.1" r="1.4"/><circle cx="686.1" cy="1215.9" r="1.3"/><circle cx="47.8" cy="1036.6" r="1.6"/><circle cx="551.3" cy="1154.8" r="1.4"/><circle cx="535.1" cy="447.5" r="1.4"/><circle cx="104.2" cy="495.9" r="1.6"/><circle cx="68.9" cy="693.5" r="1"/><circle cx="16.1" cy="130.2" r="2.2"/><circle cx="191.7" cy="62.8" r="1.9"/><circle cx="563.7" cy="1194.5" r="1.4"/><circle cx="1000.1" cy="1055" r="1.9"/><circle cx="459.9" cy="276.5" r="1.8"/><circle cx="754.7" cy="230.2" r="1.7"/><circle cx="742.3" cy="1238.9" r="1.8"/><circle cx="465.2" cy="646.2" r="2.2"/><circle cx="70.7" cy="399.4" r="2.1"/><circle cx="906.8" cy="154.5" r="1.6"/><circle cx="633.7" cy="596.8" r="1.7"/><circle cx="178.1" cy="346.9" r="1.5"/><circle cx="590.1" cy="1523.2" r="1.6"/><circle cx="644.1" cy="325.4" r="2.1"/><circle cx="47.4" cy="1030.6" r="1.2"/><circle cx="77.1" cy="137" r="1.3"/><circle cx="826.1" cy="1362.7" r="1.9"/><circle cx="666.4" cy="1369.2" r="1.6"/><circle cx="963.7" cy="1467.8" r="2"/><circle cx="624.9" cy="1204.2" r="1.8"/><circle cx="609.1" cy="204.8" r="1.4"/><circle cx="705.3" cy="262.6" r="1.7"/><circle cx="200.7" cy="331.2" r="1.4"/><circle cx="20.1" cy="141" r="2.2"/><circle cx="127.9" cy="272.6" r="1.5"/><circle cx="451.5" cy="778.3" r="1.9"/><circle cx="592.9" cy="146.4" r="1.6"/><circle cx="16.4" cy="741.7" r="1.4"/><circle cx="967.3" cy="1129.9" r="1.5"/><circle cx="954.5" cy="211.2" r="1.4"/><circle cx="342.8" cy="614.5" r="1.8"/><circle cx="487.5" cy="546.8" r="2"/><circle cx="610.3" cy="45.2" r="1.3"/><circle cx="170.5" cy="724" r="1.8"/><circle cx="768.1" cy="251.7" r="1.4"/><circle cx="185.4" cy="305.6" r="1.7"/><circle cx="500.3" cy="230.3" r="2.2"/><circle cx="642.9" cy="860.7" r="1.9"/><circle cx="683.2" cy="1161.9" r="1.2"/><circle cx="414" cy="541" r="1"/><circle cx="252.7" cy="6.5" r="1.4"/><circle cx="213.7" cy="334.2" r="1.6"/><circle cx="920.7" cy="300.6" r="1.3"/><circle cx="198.8" cy="1478.9" r="1.7"/><circle cx="323.9" cy="123.8" r="1.8"/><circle cx="278.3" cy="16.7" r="2.2"/><circle cx="106.9" cy="8.2" r="1.6"/><circle cx="232.7" cy="346.4" r="2.2"/><circle cx="396.5" cy="781.2" r="1.5"/><circle cx="592.4" cy="1357.5" r="1.9"/><circle cx="894.9" cy="934" r="1.8"/><circle cx="849.4" cy="826.1" r="1.4"/><circle cx="507.2" cy="770.9" r="2"/><circle cx="856.3" cy="567.8" r="1"/><circle cx="639.7" cy="621.8" r="1.1"/><circle cx="309.1" cy="609.9" r="1.7"/><circle cx="775.5" cy="860.2" r="1"/><circle cx="209.4" cy="563.2" r="1.8"/><circle cx="33.1" cy="673.2" r="1.9"/><circle cx="727.7" cy="1371.8" r="1.3"/><circle cx="758.2" cy="1206.9" r="2.1"/><circle cx="63.4" cy="1472.6" r="1.4"/><circle cx="206.7" cy="76.5" r="1.4"/><circle cx="757.3" cy="630.3" r="1"/><circle cx="262.4" cy="174" r="1.2"/><circle cx="0.8" cy="1321.5" r="1.4"/><circle cx="910.8" cy="1449.1" r="1.1"/><circle cx="422" cy="696" r="1.1"/><circle cx="175.6" cy="260.3" r="2.2"/><circle cx="243.6" cy="1225.7" r="1.9"/><circle cx="1040.1" cy="599.2" r="1.9"/><circle cx="872.8" cy="599.8" r="2.1"/><circle cx="762.1" cy="57.1" r="1"/><circle cx="241.2" cy="886.7" r="1.4"/><circle cx="716.7" cy="1283.2" r="1.2"/><circle cx="643.2" cy="16.3" r="1.5"/><circle cx="1041" cy="35.1" r="1.1"/><circle cx="758" cy="1500.7" r="1"/><circle cx="877.5" cy="668.6" r="1.1"/><circle cx="1070" cy="1096.1" r="1.5"/><circle cx="758.8" cy="566.8" r="1.4"/><circle cx="30.3" cy="1173.3" r="1.6"/><circle cx="343.7" cy="1468.3" r="1.8"/><circle cx="780.8" cy="1477" r="1.9"/><circle cx="170.1" cy="818.7" r="2.2"/><circle cx="779.8" cy="1251.4" r="1.8"/><circle cx="1034.4" cy="698.5" r="1.3"/><circle cx="800.1" cy="1494.1" r="2.2"/><circle cx="614.3" cy="8.5" r="2.2"/><circle cx="630.1" cy="42.9" r="1.5"/><circle cx="492" cy="334.9" r="1"/><circle cx="425.3" cy="502.5" r="2"/><circle cx="484.3" cy="1475" r="2.3"/><circle cx="128.5" cy="85.8" r="2"/><circle cx="858.3" cy="283.5" r="1.7"/><circle cx="158.2" cy="273.9" r="1.4"/><circle cx="753.6" cy="1176.6" r="1.3"/><circle cx="42.7" cy="1149.9" r="1.2"/><circle cx="927.5" cy="71.6" r="1.8"/><circle cx="1040" cy="1162" r="1.4"/><circle cx="939.7" cy="527.7" r="1.1"/><circle cx="471.3" cy="94.1" r="1"/><circle cx="948.3" cy="1107" r="1.5"/><circle cx="539.1" cy="1413.7" r="2"/><circle cx="462.3" cy="632" r="1.4"/><circle cx="957" cy="375" r="1.3"/><circle cx="863.2" cy="414.3" r="1.7"/><circle cx="159.8" cy="871.3" r="1.9"/><circle cx="676.4" cy="99.2" r="1.5"/><circle cx="34.8" cy="1038.6" r="1.7"/><circle cx="956.8" cy="1271.4" r="1.3"/><circle cx="615.9" cy="239.9" r="2"/><circle cx="977.1" cy="120.9" r="2.1"/><circle cx="777.4" cy="1227" r="1.1"/><circle cx="258.4" cy="822.6" r="1.1"/><circle cx="830.1" cy="1524.9" r="2.2"/><circle cx="947.7" cy="955.8" r="1.5"/><circle cx="363.3" cy="815.2" r="1.5"/><circle cx="146.2" cy="71.9" r="1.8"/><circle cx="875.7" cy="759.2" r="1.3"/><circle cx="61.8" cy="370.5" r="1.5"/><circle cx="954" cy="414.7" r="1"/><circle cx="949.3" cy="786.8" r="1.8"/><circle cx="100.8" cy="265.5" r="1.6"/><circle cx="614.1" cy="203" r="2.2"/><circle cx="1069.3" cy="1144" r="2.1"/><circle cx="555.7" cy="297.9" r="1.2"/><circle cx="215.1" cy="1507.3" r="1.1"/><circle cx="469.6" cy="282.6" r="1.3"/><circle cx="656.7" cy="1208.5" r="1.5"/><circle cx="483.3" cy="843.6" r="1.6"/><circle cx="720" cy="1272.7" r="1.9"/><circle cx="45.2" cy="883.1" r="1.5"/><circle cx="348.7" cy="642.9" r="2.1"/><circle cx="710.1" cy="73.3" r="1.2"/><circle cx="958.1" cy="1010.6" r="1.6"/><circle cx="243.8" cy="404.6" r="2.2"/><circle cx="888.8" cy="258.1" r="1.6"/><circle cx="912.4" cy="992.9" r="1.3"/><circle cx="980.4" cy="1249" r="1.3"/><circle cx="947.5" cy="738.9" r="1.5"/><circle cx="646.4" cy="89.2" r="1.8"/><circle cx="11.8" cy="136.4" r="1.7"/><circle cx="943.6" cy="295" r="1.5"/><circle cx="922.2" cy="1439.5" r="2.1"/><circle cx="358.3" cy="880.3" r="2.2"/><circle cx="968.9" cy="12.2" r="1.2"/><circle cx="154" cy="392.7" r="1.8"/><circle cx="256.9" cy="683.8" r="1.6"/><circle cx="590.4" cy="1154.1" r="1"/><circle cx="479" cy="275.8" r="1.7"/><circle cx="515.2" cy="866.8" r="2.1"/><circle cx="922.6" cy="1041.6" r="1.6"/><circle cx="244.6" cy="1481.2" r="1.6"/><circle cx="300.2" cy="20.4" r="1.8"/><circle cx="67.3" cy="13" r="1.1"/><circle cx="883.8" cy="78.5" r="1.7"/><circle cx="957.9" cy="1518.1" r="2.1"/><circle cx="715" cy="1303.4" r="1.8"/><circle cx="872.6" cy="431.5" r="1.4"/><circle cx="1044.1" cy="687.2" r="2.1"/><circle cx="299.8" cy="197.8" r="1.9"/><circle cx="400" cy="677.8" r="1.4"/><circle cx="1031.7" cy="1093.3" r="1.6"/><circle cx="353.9" cy="320.4" r="1.8"/><circle cx="643.7" cy="232" r="2.2"/><circle cx="1022.5" cy="683.9" r="1.4"/><circle cx="778.2" cy="328.5" r="1.1"/><circle cx="720.2" cy="797.1" r="1"/><circle cx="892.9" cy="485.3" r="1.2"/><circle cx="624.4" cy="728.1" r="2"/><circle cx="597.8" cy="525.7" r="1"/><circle cx="469" cy="1169.7" r="1.2"/><circle cx="209" cy="699.8" r="1.7"/><circle cx="32.2" cy="1355.5" r="2.2"/><circle cx="855.6" cy="710.4" r="1.6"/><circle cx="328.8" cy="831" r="2"/><circle cx="483.3" cy="691.4" r="1.2"/><circle cx="578.2" cy="373.7" r="1.9"/><circle cx="735" cy="125.5" r="1"/><circle cx="95.2" cy="281.4" r="2.1"/><circle cx="493.3" cy="1209.8" r="1.2"/><circle cx="547.2" cy="248.5" r="1.5"/><circle cx="879.3" cy="1292.6" r="2.2"/><circle cx="1069.7" cy="613.2" r="1.5"/><circle cx="980.9" cy="273.6" r="1.9"/><circle cx="232.2" cy="423.8" r="1.5"/><circle cx="795.7" cy="1170.9" r="1.3"/><circle cx="893.3" cy="513.9" r="1.2"/><circle cx="563.6" cy="242.8" r="1.8"/><circle cx="344.4" cy="759.8" r="1.6"/><circle cx="880.1" cy="1001.2" r="1.1"/><circle cx="207.6" cy="494.5" r="1"/><circle cx="1061.9" cy="72" r="1.4"/><circle cx="1071.1" cy="902.7" r="1.9"/><circle cx="789" cy="390.8" r="1.1"/><circle cx="710.4" cy="499" r="2.2"/><circle cx="391.5" cy="735.7" r="1.8"/><circle cx="1057.8" cy="891.6" r="1.5"/><circle cx="824.2" cy="1220.8" r="1.7"/><circle cx="992.9" cy="660.9" r="1.2"/><circle cx="321.2" cy="37.5" r="2"/><circle cx="1002.2" cy="33.3" r="1.2"/><circle cx="301" cy="407.2" r="2.1"/><circle cx="554.2" cy="833.9" r="2"/><circle cx="638.6" cy="732.8" r="1.2"/><circle cx="884.9" cy="554.9" r="1.9"/><circle cx="410.3" cy="1520.8" r="2.1"/><circle cx="855.4" cy="1454.1" r="1.7"/><circle cx="735.4" cy="0.7" r="1.6"/><circle cx="1033.5" cy="1368.7" r="1.4"/><circle cx="420.3" cy="858.7" r="1.2"/><circle cx="359.6" cy="201" r="2.1"/><circle cx="691.5" cy="676.1" r="2.2"/><circle cx="297.7" cy="188.9" r="1.4"/><circle cx="721.4" cy="787.3" r="2.2"/><circle cx="1014" cy="1515.3" r="1.4"/><circle cx="586.8" cy="113.6" r="1.1"/><circle cx="509" cy="356.3" r="1.5"/><circle cx="34.4" cy="391.3" r="1.1"/><circle cx="247.9" cy="359.6" r="1.5"/><circle cx="437.6" cy="415.4" r="1.8"/><circle cx="728" cy="189.6" r="1"/><circle cx="113" cy="1507" r="1.9"/><circle cx="899.7" cy="954.7" r="1.1"/><circle cx="274.7" cy="43.8" r="1.7"/><circle cx="860.7" cy="771.8" r="2.2"/><circle cx="284.8" cy="192.7" r="1.5"/><circle cx="367" cy="122.4" r="1.3"/><circle cx="943" cy="308.2" r="2.1"/><circle cx="703.5" cy="1442" r="1.4"/><circle cx="1044.4" cy="824.3" r="1.3"/><circle cx="38.8" cy="803.5" r="1.7"/><circle cx="540.3" cy="209.3" r="1.6"/><circle cx="115.3" cy="182" r="1.7"/><circle cx="902.6" cy="39.3" r="1.4"/><circle cx="783.9" cy="346.6" r="1.9"/><circle cx="665.4" cy="1474.8" r="2.2"/><circle cx="256.3" cy="237.5" r="2"/><circle cx="608.1" cy="852.7" r="1.9"/><circle cx="998.9" cy="238.3" r="1.4"/><circle cx="681.9" cy="137.3" r="1.3"/><circle cx="486.5" cy="542.6" r="1.8"/><circle cx="465.1" cy="124.1" r="1"/><circle cx="253.4" cy="633.6" r="1.5"/><circle cx="574.8" cy="29.2" r="2.1"/><circle cx="189.9" cy="472.3" r="1.3"/><circle cx="837.1" cy="1216.2" r="1.7"/><circle cx="985.1" cy="886.5" r="2.2"/><circle cx="859.4" cy="388.2" r="1.4"/><circle cx="1044.8" cy="1120.9" r="1.7"/><circle cx="977.6" cy="1112.4" r="1.5"/><circle cx="407.6" cy="477.4" r="2.3"/><circle cx="934.2" cy="221.8" r="1.7"/><circle cx="1077.1" cy="1017.5" r="2.2"/><circle cx="894.1" cy="1347.9" r="1.1"/></g></g><g class="rr-human-handmade-1-el rr-human-handmade-1-art"><g transform="translate(167.6 86.4) scale(1.8622)"><defs><clipPath id="rr-human-handmade-1-fld0"><path d="M 128 74 C 226 28, 372 72, 364 190 C 358 300, 272 378, 176 352 C 112 334, 146 268, 104 230 C 62 192, 52 112, 128 74 Z"/></clipPath></defs><g transform="translate(5.2 3.9)"><path d="M 128 74 C 226 28, 372 72, 364 190 C 358 300, 272 378, 176 352 C 112 334, 146 268, 104 230 C 62 192, 52 112, 128 74 Z" fill="#ffffff"/><g fill="#f8ed43" clip-path="url(#rr-human-handmade-1-fld0)"><rect x="116.4" y="61.7" width="8.1" height="2.3" rx="0.9"/><rect x="120.2" y="71.4" width="24.4" height="2.4" rx="0.9"/><rect x="95.9" y="82.9" width="32.9" height="2.6" rx="0.9"/><rect x="107" y="92.4" width="24.1" height="2.7" rx="0.9"/><rect x="106.5" y="100.5" width="26.2" height="2.1" rx="0.9"/><rect x="103.7" y="113.8" width="22.4" height="1.5" rx="0.9"/><rect x="91.3" y="121.9" width="9.8" height="1.2" rx="0.9"/><rect x="126.8" y="133.8" width="27" height="2.3" rx="0.9"/><rect x="113.1" y="142.1" width="14" height="1.8" rx="0.9"/><rect x="123.8" y="152" width="20.9" height="1" rx="0.9"/><rect x="131.1" y="161" width="26.3" height="2" rx="0.9"/><rect x="111.5" y="171.7" width="34.6" height="2.6" rx="0.9"/><rect x="115.9" y="182.7" width="22.5" height="1.9" rx="0.9"/><rect x="100.4" y="193.1" width="19.2" height="1.7" rx="0.9"/><rect x="119.1" y="203" width="7.2" height="1.7" rx="0.9"/><rect x="93.3" y="212.2" width="13.8" height="2.8" rx="0.9"/><rect x="103.2" y="223.8" width="31" height="1.6" rx="0.9"/><rect x="94.9" y="230.1" width="12.3" height="2" rx="0.9"/><rect x="110.4" y="242.3" width="31" height="2.7" rx="0.9"/><rect x="131.4" y="253.1" width="27.2" height="1.8" rx="0.9"/><rect x="93.9" y="260.6" width="16.4" height="2.7" rx="0.9"/><rect x="126.6" y="273.6" width="20.2" height="1.9" rx="0.9"/><rect x="129.3" y="283.3" width="24.4" height="1.9" rx="0.9"/><rect x="115.1" y="291.4" width="10.2" height="1.5" rx="0.9"/><rect x="89.1" y="303.8" width="20.2" height="1.3" rx="0.9"/><rect x="131.2" y="311.2" width="6.6" height="1" rx="0.9"/><rect x="130.2" y="321.9" width="14" height="2.6" rx="0.9"/><rect x="94.1" y="331.1" width="17.7" height="1.3" rx="0.9"/><rect x="87.8" y="340" width="10.4" height="2.3" rx="0.9"/><rect x="110.9" y="351.7" width="10.1" height="2.1" rx="0.9"/></g><path d="M375.8 82.1L360.8 84.8L370.6 96.3L356 92.3L359.9 106.9L348.5 96.9L345.5 111.8L339.6 97.9L330.5 110L331.2 94.9L317.8 101.9L325 88.5L309.8 89L322.1 80.1L308.2 73.9L323.2 71.2L313.4 59.7L328 63.7L324.1 49.1L335.5 59.1L338.5 44.2L344.4 58.1L353.5 46L352.8 61.1L366.2 54.1L359 67.5L374.2 67L361.9 75.9Z" fill="#f8ed43"/><path d="M -64 22 C -50 2, -24 -16, 0 -26 C 20 -18, 42 -4, 58 8 C 63 12, 58 19, 52 16 C 36 8, 16 -2, 2 -6 C -14 2, -34 18, -50 32 C -56 37, -68 30, -64 22 Z" fill="#ffffff" transform="translate(70 360) rotate(-12) scale(0.7)"/><path d="M 144 178 C 148 126, 210 110, 236 166 L 300 254 L 258 246 C 226 266, 156 242, 144 178 Z" fill="#62c6bf"/><path d="M 160 138 L 190 92 L 198 136 Z" fill="#62c6bf"/><path d="M 64 286 Q 72.4 267.3 58.1 252.5 Q 49.7 271.3 64 286 Z" fill="#ffffff"/></g><path d="M 128 74 C 226 28, 372 72, 364 190 C 358 300, 272 378, 176 352 C 112 334, 146 268, 104 230 C 62 192, 52 112, 128 74 Z" fill="none" stroke="#253122" stroke-width="2.4" stroke-dasharray="620 260" stroke-linecap="round"/><path d="M 6 300 C 120 290, 250 286, 394 262" fill="none" stroke="#253122" stroke-width="6.669614829743582" stroke-linecap="round"/><path d="M 86 292 L 62 270" stroke="#253122" stroke-width="4.00176889784615" stroke-linecap="round"/><path d="M 62 270 Q 52.5 250.4 30.8 252 Q 40.3 271.6 62 270 Z" fill="#253122"/><path d="M 190 186 C 216 156, 256 186, 276 232 C 236 226, 202 220, 190 186 Z" fill="#253122"/><path d="M 144 178 L 166 150 L 182 188 Z" fill="#253122"/><path d="M 146 166 L 116 180 L 146 190 Z" fill="#ffffff" stroke="#253122" stroke-width="2.435859329123743" stroke-linejoin="round"/><g stroke="#253122" stroke-width="3.334807414871791" stroke-linecap="round"><path d="M 202 248 L 196 288"/><path d="M 222 250 L 220 286"/></g><path d="M -64 22 C -50 2, -24 -16, 0 -26 C 20 -18, 42 -4, 58 8 C 63 12, 58 19, 52 16 C 36 8, 16 -2, 2 -6 C -14 2, -34 18, -50 32 C -56 37, -68 30, -64 22 Z" fill="none" stroke="#253122" stroke-width="3.5" stroke-linejoin="round" transform="translate(-3.1318191374448126 -2.087879424963208) translate(70 360) rotate(-12) scale(0.7)"/><circle cx="166" cy="166" r="8" fill="#ffffff"/><circle cx="164" cy="166" r="3.4" fill="#253122"/></g></g><g class="rr-human-handmade-1-el rr-human-handmade-1-headline"><text font-family="'Boogaloo', sans-serif" font-weight="400" font-size="104.5" letter-spacing="-2.09" fill="#253122" text-anchor="start"><tspan x="86.4" y="988.8">Human and</tspan><tspan x="86.4" y="1094.4">handmade</tspan></text></g><g class="rr-human-handmade-1-el rr-human-handmade-1-subhead"><text font-family="'Jost', sans-serif" font-weight="400" font-size="38.0" letter-spacing="0.00" fill="#253122" text-anchor="start"><tspan x="86.4" y="1270.2">Makers, community,</tspan><tspan x="86.4" y="1316.6">notes, personal brands.</tspan></text></g><g class="rr-human-handmade-1-el rr-human-handmade-1-brand"><text x="86.4" y="1194.4" font-family="'Boogaloo', sans-serif" font-weight="400" font-size="42.4" letter-spacing="6.79" fill="#253122">RYE &amp; RISE</text></g><g class="rr-human-handmade-1-el rr-human-handmade-1-cta"><path d="M 105.3 1364.9 H 488.9 L 469.9 1435 H 86.4 Z" fill="#253122" stroke="#253122" stroke-width="8.4" stroke-linejoin="round"/><text x="287.6" y="1411.1" text-anchor="middle" font-family="'Boogaloo', sans-serif" font-weight="400" font-size="31.9" letter-spacing="0.6" fill="#ffffff">Recipe human-handmade-1</text></g></svg>
