<svg xmlns="http://www.w3.org/2000/svg" viewBox="0 0 1080 1920" width="1080" height="1920" role="img" aria-label="Your 6:30 breakfast is baking · Rye &amp; Rise"><style>@import url("https://fonts.googleapis.com/css2?family=Young+Serif:wght@400&family=Onest:wght@400;500;700&family=JetBrains+Mono:wght@400;500&family=Caveat:wght@400;700&display=swap");</style><defs></defs><g class="rr-story-el rr-story-ground"><rect width="1080" height="1920" fill="#ebd3a2"/></g><g class="rr-story-el rr-story-art"><defs><filter id="rr-story-z0p" filterUnits="userSpaceOnUse" x="-10" y="-10" width="380" height="380" color-interpolation-filters="sRGB"><feGaussianBlur stdDeviation="2.2" result="b0"/><feTurbulence type="fractalNoise" baseFrequency="0.0316" numOctaves="2" seed="3" result="t"/><feComposite in="b0" in2="t" operator="arithmetic" k2="1" k3="0.14" k4="-0.07" result="b1"/><feComposite in="b1" in2="b0" operator="in" result="b2"/><feComponentTransfer in="b2" result="b"><feFuncR type="gamma" exponent="1"/><feFuncG type="gamma" exponent="1"/><feFuncB type="gamma" exponent="1"/></feComponentTransfer><feColorMatrix in="b" type="matrix" values="0.2126 0.7152 0.0722 0 0  0.2126 0.7152 0.0722 0 0  0.2126 0.7152 0.0722 0 0  0 0 0 1 0"/><feComponentTransfer><feFuncR type="discrete" tableValues="0.851 0.851 0.851 0.851 0.851 0.851 0.851 0.851 0.851 0.851 0.851 0.851 0.851 0.851 0.851 0.851 0.851 0.851 0.851 0.851 0.851 0.851 0.851 0.851 0.9216 0.9216 0.9216 0.9216 0.9216 0.9216 0.9216 0.9216 0.9216 0.9216 0.9216 0.9216 1 1 1 1 1 1 1 1 1 1 1 1"/><feFuncG type="discrete" tableValues="0.4 0.4 0.4 0.4 0.4 0.4 0.4 0.4 0.4 0.4 0.4 0.4 0.4 0.4 0.4 0.4 0.4 0.4 0.4 0.4 0.4 0.4 0.4 0.4 0.8275 0.8275 0.8275 0.8275 0.8275 0.8275 0.8275 0.8275 0.8275 0.8275 0.8275 0.8275 1 1 1 1 1 1 1 1 1 1 1 1"/><feFuncB type="discrete" tableValues="0.1608 0.1608 0.1608 0.1608 0.1608 0.1608 0.1608 0.1608 0.1608 0.1608 0.1608 0.1608 0.1608 0.1608 0.1608 0.1608 0.1608 0.1608 0.1608 0.1608 0.1608 0.1608 0.1608 0.1608 0.6353 0.6353 0.6353 0.6353 0.6353 0.6353 0.6353 0.6353 0.6353 0.6353 0.6353 0.6353 1 1 1 1 1 1 1 1 1 1 1 1"/><feFuncA type="discrete" tableValues="0 1"/></feComponentTransfer></filter><filter id="rr-story-z0k" filterUnits="userSpaceOnUse" x="-10" y="-10" width="380" height="380" color-interpolation-filters="sRGB"><feGaussianBlur stdDeviation="2.2" result="b0"/><feTurbulence type="fractalNoise" baseFrequency="0.0316" numOctaves="2" seed="3" result="t"/><feComposite in="b0" in2="t" operator="arithmetic" k2="1" k3="0.14" k4="-0.07" result="b1"/><feComposite in="b1" in2="b0" operator="in" result="b2"/><feComponentTransfer in="b2" result="b"><feFuncR type="gamma" exponent="1"/><feFuncG type="gamma" exponent="1"/><feFuncB type="gamma" exponent="1"/></feComponentTransfer><feComponentTransfer in="b" result="mask"><feFuncA type="discrete" tableValues="0 1"/></feComponentTransfer><feColorMatrix in="b" type="matrix" values="0 0 0 0 0.0667  0 0 0 0 0.0745  0 0 0 0 0.0784  -0.2126 -0.7152 -0.0722 0 1" result="dark"/><feComponentTransfer in="dark" result="cut"><feFuncA type="discrete" tableValues="0 0 0 0 0 0 0 0 0 0 0 0 0 0 0 0 0 0 0 0 0 0 0 0 0 0 0 0 0 0 0 0 0 0 0 0 1 1 1 1 1 1 1 1 1 1 1 1"/></feComponentTransfer><feComposite in="cut" in2="mask" operator="in" result="plate"/><feTurbulence type="fractalNoise" baseFrequency="0.9474" numOctaves="1" seed="7" result="n"/><feComponentTransfer in="n" result="voids"><feFuncA type="discrete" tableValues="1 1 1 1 1 1 1 1 1 0"/></feComponentTransfer><feComposite in="plate" in2="voids" operator="in"/><feOffset dx="6.9" dy="4.1"/></filter><clipPath id="rr-story-z0c"><rect x="0" y="533.2" width="1080" height="470"/></clipPath></defs><rect x="0" y="533.2" width="1080" height="470" fill="#ffffff"/><g clip-path="url(#rr-story-z0c)"><g fill="#d96629"><circle cx="0" cy="1003.2" r="8.8"/><circle cx="19.4" cy="1003.2" r="8.8"/><circle cx="38.9" cy="1003.2" r="8.6"/><circle cx="58.3" cy="1003.2" r="8.3"/><circle cx="77.8" cy="1003.2" r="7.9"/><circle cx="97.2" cy="1003.2" r="7.5"/><circle cx="116.6" cy="1003.2" r="7.2"/><circle cx="136.1" cy="1003.2" r="6.7"/><circle cx="155.5" cy="1003.2" r="6.3"/><circle cx="175" cy="1003.2" r="5.8"/><circle cx="194.4" cy="1003.2" r="5.3"/><circle cx="213.8" cy="1003.2" r="4.8"/><circle cx="233.3" cy="1003.2" r="4.1"/><circle cx="252.7" cy="1003.2" r="3.4"/><circle cx="272.2" cy="1003.2" r="2.4"/><circle cx="9.7" cy="993.5" r="8.8"/><circle cx="29.2" cy="993.5" r="8.7"/><circle cx="48.6" cy="993.5" r="8.4"/><circle cx="68" cy="993.5" r="8.1"/><circle cx="87.5" cy="993.5" r="7.7"/><circle cx="106.9" cy="993.5" r="7.3"/><circle cx="126.4" cy="993.5" r="6.9"/><circle cx="145.8" cy="993.5" r="6.5"/><circle cx="165.2" cy="993.5" r="6.1"/><circle cx="184.7" cy="993.5" r="5.6"/><circle cx="204.1" cy="993.5" r="5"/><circle cx="223.6" cy="993.5" r="4.4"/><circle cx="243" cy="993.5" r="3.8"/><circle cx="262.4" cy="993.5" r="2.9"/><circle cx="0" cy="983.8" r="8.8"/><circle cx="19.4" cy="983.8" r="8.8"/><circle cx="38.9" cy="983.8" r="8.5"/><circle cx="58.3" cy="983.8" r="8.2"/><circle cx="77.8" cy="983.8" r="7.9"/><circle cx="97.2" cy="983.8" r="7.5"/><circle cx="116.6" cy="983.8" r="7.1"/><circle cx="136.1" cy="983.8" r="6.7"/><circle cx="155.5" cy="983.8" r="6.3"/><circle cx="175" cy="983.8" r="5.8"/><circle cx="194.4" cy="983.8" r="5.3"/><circle cx="213.8" cy="983.8" r="4.7"/><circle cx="233.3" cy="983.8" r="4.1"/><circle cx="252.7" cy="983.8" r="3.3"/><circle cx="9.7" cy="974" r="8.7"/><circle cx="29.2" cy="974" r="8.6"/><circle cx="48.6" cy="974" r="8.3"/><circle cx="68" cy="974" r="8"/><circle cx="87.5" cy="974" r="7.6"/><circle cx="106.9" cy="974" r="7.3"/><circle cx="126.4" cy="974" r="6.9"/><circle cx="145.8" cy="974" r="6.5"/><circle cx="165.2" cy="974" r="6"/><circle cx="184.7" cy="974" r="5.5"/><circle cx="204.1" cy="974" r="5"/><circle cx="223.6" cy="974" r="4.4"/><circle cx="243" cy="974" r="3.7"/><circle cx="262.4" cy="974" r="2.8"/><circle cx="0" cy="964.3" r="8.6"/><circle cx="19.4" cy="964.3" r="8.5"/><circle cx="38.9" cy="964.3" r="8.3"/><circle cx="58.3" cy="964.3" r="8"/><circle cx="77.8" cy="964.3" r="7.7"/><circle cx="97.2" cy="964.3" r="7.4"/><circle cx="116.6" cy="964.3" r="7"/><circle cx="136.1" cy="964.3" r="6.6"/><circle cx="155.5" cy="964.3" r="6.2"/><circle cx="175" cy="964.3" r="5.7"/><circle cx="194.4" cy="964.3" r="5.2"/><circle cx="213.8" cy="964.3" r="4.7"/><circle cx="233.3" cy="964.3" r="4"/><circle cx="252.7" cy="964.3" r="3.2"/><circle cx="9.7" cy="954.6" r="8.4"/><circle cx="29.2" cy="954.6" r="8.3"/><circle cx="48.6" cy="954.6" r="8.1"/><circle cx="68" cy="954.6" r="7.8"/><circle cx="87.5" cy="954.6" r="7.5"/><circle cx="106.9" cy="954.6" r="7.1"/><circle cx="126.4" cy="954.6" r="6.8"/><circle cx="145.8" cy="954.6" r="6.3"/><circle cx="165.2" cy="954.6" r="5.9"/><circle cx="184.7" cy="954.6" r="5.4"/><circle cx="204.1" cy="954.6" r="4.9"/><circle cx="223.6" cy="954.6" r="4.3"/><circle cx="243" cy="954.6" r="3.6"/><circle cx="262.4" cy="954.6" r="2.7"/><circle cx="0" cy="944.9" r="8.3"/><circle cx="19.4" cy="944.9" r="8.2"/><circle cx="38.9" cy="944.9" r="8"/><circle cx="58.3" cy="944.9" r="7.8"/><circle cx="77.8" cy="944.9" r="7.5"/><circle cx="97.2" cy="944.9" r="7.2"/><circle cx="116.6" cy="944.9" r="6.9"/><circle cx="136.1" cy="944.9" r="6.5"/><circle cx="155.5" cy="944.9" r="6.1"/><circle cx="175" cy="944.9" r="5.6"/><circle cx="194.4" cy="944.9" r="5.1"/><circle cx="213.8" cy="944.9" r="4.5"/><circle cx="233.3" cy="944.9" r="3.9"/><circle cx="252.7" cy="944.9" r="3.1"/><circle cx="9.7" cy="935.2" r="8.1"/><circle cx="29.2" cy="935.2" r="8"/><circle cx="48.6" cy="935.2" r="7.8"/><circle cx="68" cy="935.2" r="7.6"/><circle cx="87.5" cy="935.2" r="7.3"/><circle cx="106.9" cy="935.2" r="6.9"/><circle cx="126.4" cy="935.2" r="6.6"/><circle cx="145.8" cy="935.2" r="6.2"/><circle cx="165.2" cy="935.2" r="5.7"/><circle cx="184.7" cy="935.2" r="5.3"/><circle cx="204.1" cy="935.2" r="4.7"/><circle cx="223.6" cy="935.2" r="4.1"/><circle cx="243" cy="935.2" r="3.4"/><circle cx="262.4" cy="935.2" r="2.4"/><circle cx="0" cy="925.4" r="7.9"/><circle cx="19.4" cy="925.4" r="7.9"/><circle cx="38.9" cy="925.4" r="7.7"/><circle cx="58.3" cy="925.4" r="7.5"/><circle cx="77.8" cy="925.4" r="7.3"/><circle cx="97.2" cy="925.4" r="7"/><circle cx="116.6" cy="925.4" r="6.7"/><circle cx="136.1" cy="925.4" r="6.3"/><circle cx="155.5" cy="925.4" r="5.9"/><circle cx="175" cy="925.4" r="5.4"/><circle cx="194.4" cy="925.4" r="4.9"/><circle cx="213.8" cy="925.4" r="4.3"/><circle cx="233.3" cy="925.4" r="3.6"/><circle cx="252.7" cy="925.4" r="2.8"/><circle cx="9.7" cy="915.7" r="7.7"/><circle cx="29.2" cy="915.7" r="7.6"/><circle cx="48.6" cy="915.7" r="7.5"/><circle cx="68" cy="915.7" r="7.3"/><circle cx="87.5" cy="915.7" r="7"/><circle cx="106.9" cy="915.7" r="6.7"/><circle cx="126.4" cy="915.7" r="6.3"/><circle cx="145.8" cy="915.7" r="6"/><circle cx="165.2" cy="915.7" r="5.5"/><circle cx="184.7" cy="915.7" r="5"/><circle cx="204.1" cy="915.7" r="4.5"/><circle cx="223.6" cy="915.7" r="3.9"/><circle cx="243" cy="915.7" r="3.1"/><circle cx="0" cy="906" r="7.5"/><circle cx="19.4" cy="906" r="7.5"/><circle cx="38.9" cy="906" r="7.4"/><circle cx="58.3" cy="906" r="7.2"/><circle cx="77.8" cy="906" r="7"/><circle cx="97.2" cy="906" r="6.7"/><circle cx="116.6" cy="906" r="6.4"/><circle cx="136.1" cy="906" r="6"/><circle cx="155.5" cy="906" r="5.6"/><circle cx="175" cy="906" r="5.2"/><circle cx="194.4" cy="906" r="4.7"/><circle cx="213.8" cy="906" r="4.1"/><circle cx="233.3" cy="906" r="3.4"/><circle cx="252.7" cy="906" r="2.5"/><circle cx="9.7" cy="896.3" r="7.3"/><circle cx="29.2" cy="896.3" r="7.3"/><circle cx="48.6" cy="896.3" r="7.1"/><circle cx="68" cy="896.3" r="6.9"/><circle cx="87.5" cy="896.3" r="6.7"/><circle cx="106.9" cy="896.3" r="6.4"/><circle cx="126.4" cy="896.3" r="6.1"/><circle cx="145.8" cy="896.3" r="5.7"/><circle cx="165.2" cy="896.3" r="5.3"/><circle cx="184.7" cy="896.3" r="4.8"/><circle cx="204.1" cy="896.3" r="4.2"/><circle cx="223.6" cy="896.3" r="3.6"/><circle cx="243" cy="896.3" r="2.8"/><circle cx="0" cy="886.6" r="7.2"/><circle cx="19.4" cy="886.6" r="7.1"/><circle cx="38.9" cy="886.6" r="7"/><circle cx="58.3" cy="886.6" r="6.9"/><circle cx="77.8" cy="886.6" r="6.7"/><circle cx="97.2" cy="886.6" r="6.4"/><circle cx="116.6" cy="886.6" r="6.1"/><circle cx="136.1" cy="886.6" r="5.7"/><circle cx="155.5" cy="886.6" r="5.3"/><circle cx="175" cy="886.6" r="4.9"/><circle cx="194.4" cy="886.6" r="4.4"/><circle cx="213.8" cy="886.6" r="3.7"/><circle cx="233.3" cy="886.6" r="3"/><circle cx="9.7" cy="876.8" r="6.9"/><circle cx="29.2" cy="876.8" r="6.9"/><circle cx="48.6" cy="876.8" r="6.8"/><circle cx="68" cy="876.8" r="6.6"/><circle cx="87.5" cy="876.8" r="6.3"/><circle cx="106.9" cy="876.8" r="6.1"/><circle cx="126.4" cy="876.8" r="5.7"/><circle cx="145.8" cy="876.8" r="5.4"/><circle cx="165.2" cy="876.8" r="4.9"/><circle cx="184.7" cy="876.8" r="4.4"/><circle cx="204.1" cy="876.8" r="3.9"/><circle cx="223.6" cy="876.8" r="3.2"/><circle cx="0" cy="867.1" r="6.7"/><circle cx="19.4" cy="867.1" r="6.7"/><circle cx="38.9" cy="867.1" r="6.6"/><circle cx="58.3" cy="867.1" r="6.5"/><circle cx="77.8" cy="867.1" r="6.3"/><circle cx="97.2" cy="867.1" r="6"/><circle cx="116.6" cy="867.1" r="5.7"/><circle cx="136.1" cy="867.1" r="5.4"/><circle cx="155.5" cy="867.1" r="5"/><circle cx="175" cy="867.1" r="4.5"/><circle cx="194.4" cy="867.1" r="4"/><circle cx="213.8" cy="867.1" r="3.3"/><circle cx="233.3" cy="867.1" r="2.5"/><circle cx="9.7" cy="857.4" r="6.5"/><circle cx="29.2" cy="857.4" r="6.5"/><circle cx="48.6" cy="857.4" r="6.3"/><circle cx="68" cy="857.4" r="6.2"/><circle cx="87.5" cy="857.4" r="6"/><circle cx="106.9" cy="857.4" r="5.7"/><circle cx="126.4" cy="857.4" r="5.4"/><circle cx="145.8" cy="857.4" r="5"/><circle cx="165.2" cy="857.4" r="4.6"/><circle cx="184.7" cy="857.4" r="4.1"/><circle cx="204.1" cy="857.4" r="3.4"/><circle cx="223.6" cy="857.4" r="2.7"/><circle cx="0" cy="847.7" r="6.3"/><circle cx="19.4" cy="847.7" r="6.3"/><circle cx="38.9" cy="847.7" r="6.2"/><circle cx="58.3" cy="847.7" r="6.1"/><circle cx="77.8" cy="847.7" r="5.9"/><circle cx="97.2" cy="847.7" r="5.6"/><circle cx="116.6" cy="847.7" r="5.3"/><circle cx="136.1" cy="847.7" r="5"/><circle cx="155.5" cy="847.7" r="4.6"/><circle cx="175" cy="847.7" r="4.1"/><circle cx="194.4" cy="847.7" r="3.5"/><circle cx="213.8" cy="847.7" r="2.8"/><circle cx="9.7" cy="838" r="6.1"/><circle cx="29.2" cy="838" r="6"/><circle cx="48.6" cy="838" r="5.9"/><circle cx="68" cy="838" r="5.7"/><circle cx="87.5" cy="838" r="5.5"/><circle cx="106.9" cy="838" r="5.3"/><circle cx="126.4" cy="838" r="4.9"/><circle cx="145.8" cy="838" r="4.6"/><circle cx="165.2" cy="838" r="4.1"/><circle cx="184.7" cy="838" r="3.6"/><circle cx="204.1" cy="838" r="2.9"/><circle cx="0" cy="828.2" r="5.8"/><circle cx="19.4" cy="828.2" r="5.8"/><circle cx="38.9" cy="828.2" r="5.7"/><circle cx="58.3" cy="828.2" r="5.6"/><circle cx="77.8" cy="828.2" r="5.4"/><circle cx="97.2" cy="828.2" r="5.2"/><circle cx="116.6" cy="828.2" r="4.9"/><circle cx="136.1" cy="828.2" r="4.5"/><circle cx="155.5" cy="828.2" r="4.1"/><circle cx="175" cy="828.2" r="3.6"/><circle cx="194.4" cy="828.2" r="3"/><circle cx="9.7" cy="818.5" r="5.6"/><circle cx="29.2" cy="818.5" r="5.5"/><circle cx="48.6" cy="818.5" r="5.4"/><circle cx="68" cy="818.5" r="5.3"/><circle cx="87.5" cy="818.5" r="5"/><circle cx="106.9" cy="818.5" r="4.8"/><circle cx="126.4" cy="818.5" r="4.4"/><circle cx="145.8" cy="818.5" r="4.1"/><circle cx="165.2" cy="818.5" r="3.6"/><circle cx="184.7" cy="818.5" r="3"/><circle cx="0" cy="808.8" r="5.3"/><circle cx="19.4" cy="808.8" r="5.3"/><circle cx="38.9" cy="808.8" r="5.2"/><circle cx="58.3" cy="808.8" r="5.1"/><circle cx="77.8" cy="808.8" r="4.9"/><circle cx="97.2" cy="808.8" r="4.7"/><circle cx="116.6" cy="808.8" r="4.4"/><circle cx="136.1" cy="808.8" r="4"/><circle cx="155.5" cy="808.8" r="3.5"/><circle cx="175" cy="808.8" r="3"/><circle cx="9.7" cy="799.1" r="5"/><circle cx="29.2" cy="799.1" r="5"/><circle cx="48.6" cy="799.1" r="4.9"/><circle cx="68" cy="799.1" r="4.7"/><circle cx="87.5" cy="799.1" r="4.5"/><circle cx="106.9" cy="799.1" r="4.2"/><circle cx="126.4" cy="799.1" r="3.9"/><circle cx="145.8" cy="799.1" r="3.4"/><circle cx="165.2" cy="799.1" r="2.9"/><circle cx="0" cy="789.4" r="4.8"/><circle cx="19.4" cy="789.4" r="4.7"/><circle cx="38.9" cy="789.4" r="4.7"/><circle cx="58.3" cy="789.4" r="4.5"/><circle cx="77.8" cy="789.4" r="4.3"/><circle cx="97.2" cy="789.4" r="4.1"/><circle cx="116.6" cy="789.4" r="3.7"/><circle cx="136.1" cy="789.4" r="3.3"/><circle cx="155.5" cy="789.4" r="2.8"/><circle cx="9.7" cy="779.6" r="4.4"/><circle cx="29.2" cy="779.6" r="4.4"/><circle cx="48.6" cy="779.6" r="4.3"/><circle cx="68" cy="779.6" r="4.1"/><circle cx="87.5" cy="779.6" r="3.9"/><circle cx="106.9" cy="779.6" r="3.6"/><circle cx="126.4" cy="779.6" r="3.2"/><circle cx="145.8" cy="779.6" r="2.7"/><circle cx="0" cy="769.9" r="4.1"/><circle cx="19.4" cy="769.9" r="4.1"/><circle cx="38.9" cy="769.9" r="4"/><circle cx="58.3" cy="769.9" r="3.9"/><circle cx="77.8" cy="769.9" r="3.6"/><circle cx="97.2" cy="769.9" r="3.4"/><circle cx="116.6" cy="769.9" r="3"/><circle cx="136.1" cy="769.9" r="2.5"/><circle cx="9.7" cy="760.2" r="3.8"/><circle cx="29.2" cy="760.2" r="3.7"/><circle cx="48.6" cy="760.2" r="3.6"/><circle cx="68" cy="760.2" r="3.4"/><circle cx="87.5" cy="760.2" r="3.1"/><circle cx="106.9" cy="760.2" r="2.8"/><circle cx="0" cy="750.5" r="3.4"/><circle cx="19.4" cy="750.5" r="3.3"/><circle cx="38.9" cy="750.5" r="3.2"/><circle cx="58.3" cy="750.5" r="3.1"/><circle cx="77.8" cy="750.5" r="2.8"/><circle cx="97.2" cy="750.5" r="2.5"/><circle cx="9.7" cy="740.8" r="2.9"/><circle cx="29.2" cy="740.8" r="2.8"/><circle cx="48.6" cy="740.8" r="2.7"/><circle cx="68" cy="740.8" r="2.4"/><circle cx="0" cy="731" r="2.4"/></g><g transform="translate(314.4 552) scale(1.2534)"><g filter="url(#rr-story-z0p)"><defs>
    <linearGradient id="rr-story-z0a-body" x1="0" y1="0" x2="1" y2="0"><stop offset="0" stop-color="#757575"/><stop offset="0.24" stop-color="#f2f2f2"/><stop offset="0.5" stop-color="#8f8f8f"/><stop offset="1" stop-color="#141414"/></linearGradient>
    <linearGradient id="rr-story-z0a-saucer" x1="0" y1="0" x2="1" y2="0.3"><stop offset="0" stop-color="#e6e6e6"/><stop offset="0.6" stop-color="#808080"/><stop offset="1" stop-color="#1a1a1a"/></linearGradient>
  </defs>
  <path d="M120 112 C100 84 140 66 120 36 C108 18 126 6 132 0" stroke="#dbdbdb" stroke-width="12" fill="none" stroke-linecap="round"/>
  <path d="M176 104 C160 74 198 60 180 28" stroke="#e6e6e6" stroke-width="10" fill="none" stroke-linecap="round"/>
  <ellipse cx="180" cy="322" rx="170" ry="30" fill="url(#rr-story-z0a-saucer)"/>
  <ellipse cx="180" cy="316" rx="96" ry="12" fill="#0f0f0f"/>
  <path d="M276 160 C346 150 350 250 268 262 L262 236 C310 230 312 182 272 186 Z" fill="#292929"/>
  <path d="M60 130 L300 130 C300 230 270 312 180 312 C90 312 60 230 60 130 Z" fill="url(#rr-story-z0a-body)"/>
  <ellipse cx="180" cy="130" rx="120" ry="20" fill="#999999"/>
  <ellipse cx="180" cy="133" rx="106" ry="14" fill="#121212"/></g><g filter="url(#rr-story-z0k)"><defs>
    <linearGradient id="rr-story-z0b-body" x1="0" y1="0" x2="1" y2="0"><stop offset="0" stop-color="#757575"/><stop offset="0.24" stop-color="#f2f2f2"/><stop offset="0.5" stop-color="#8f8f8f"/><stop offset="1" stop-color="#141414"/></linearGradient>
    <linearGradient id="rr-story-z0b-saucer" x1="0" y1="0" x2="1" y2="0.3"><stop offset="0" stop-color="#e6e6e6"/><stop offset="0.6" stop-color="#808080"/><stop offset="1" stop-color="#1a1a1a"/></linearGradient>
  </defs>
  <path d="M120 112 C100 84 140 66 120 36 C108 18 126 6 132 0" stroke="#dbdbdb" stroke-width="12" fill="none" stroke-linecap="round"/>
  <path d="M176 104 C160 74 198 60 180 28" stroke="#e6e6e6" stroke-width="10" fill="none" stroke-linecap="round"/>
  <ellipse cx="180" cy="322" rx="170" ry="30" fill="url(#rr-story-z0b-saucer)"/>
  <ellipse cx="180" cy="316" rx="96" ry="12" fill="#0f0f0f"/>
  <path d="M276 160 C346 150 350 250 268 262 L262 236 C310 230 312 182 272 186 Z" fill="#292929"/>
  <path d="M60 130 L300 130 C300 230 270 312 180 312 C90 312 60 230 60 130 Z" fill="url(#rr-story-z0b-body)"/>
  <ellipse cx="180" cy="130" rx="120" ry="20" fill="#999999"/>
  <ellipse cx="180" cy="133" rx="106" ry="14" fill="#121212"/></g></g></g><rect x="0" y="996.7" width="1080" height="13" fill="#111314"/></g><g class="rr-story-el rr-story-headline"><text font-family="'Young Serif', sans-serif" font-weight="400" font-size="93.3" letter-spacing="-0.93" fill="#111314" text-anchor="start"><tspan x="86.4" y="349.1">Your 6:30</tspan><tspan x="86.4" y="452.7">breakfast is baking</tspan></text></g><g class="rr-story-el rr-story-subhead"><text font-family="'Onest', sans-serif" font-weight="500" font-size="48.6" letter-spacing="0.00" fill="#111314" text-anchor="start"><tspan x="86.4" y="1064.6">Pre-order by 9 pm tonight.</tspan></text></g><g class="rr-story-el rr-story-brand"><text x="86.4" y="1203.3" font-family="'Onest', sans-serif" font-weight="700" font-size="59.2" letter-spacing="0.59" fill="#111314">Rye &amp; Rise</text></g><g class="rr-story-el rr-story-cta"><rect x="556.2" y="1158.5" width="318.1" height="81.1" rx="6" fill="#111314"/><text x="715.3" y="1211.7" text-anchor="middle" font-family="'Onest', sans-serif" font-weight="700" font-size="35.3" fill="#ebd3a2">Pre-order now</text></g></svg>
