<svg xmlns="http://www.w3.org/2000/svg" viewBox="0 0 1080 1350" width="1080" height="1350" role="img" aria-label="Hands full. Mummy still gets her reply. · Tailzu"><style>@import url("https://fonts.googleapis.com/css2?family=Instrument+Serif:ital,wght@0,400;1,400&family=Instrument+Sans:wght@400;500;600&family=IBM+Plex+Mono:wght@400;500&family=Caveat:wght@400;700&display=swap");</style><g class="ta-moment-mummy-el ta-moment-mummy-ground"><rect width="1080" height="1350" fill="#1c4286"/></g><g class="ta-moment-mummy-el ta-moment-mummy-art"><path d="M86.4 113.6Q86.4 86.4 113.6 86.4L405 86.4Q432.2 86.4 432.2 113.6L432.2 158.3Q432.2 185.5 405 185.5L113.6 185.5Q86.4 185.5 86.4 158.3Z" fill="#ffffff"/><text x="121.4" y="135" font-family="'Instrument Sans', sans-serif" font-weight="400" font-size="38.8" fill="#111314">Pahunch gaye?</text><text x="313.2" y="270.5" font-family="'Caveat', sans-serif" font-weight="400" font-size="42.7" fill="#ffffff">haan haan pahunch gaya</text><path d="M358.6 334.2C357.8 334 355.3 333.9 354.2 332.8C353.1 331.7 351.8 329.8 351.9 327.7C352 325.5 353.5 322.6 354.9 319.7C356.4 316.8 358.3 313 360.8 310.2C363.3 307.3 366.4 305.5 370.2 302.7C374.1 299.8 378.8 295.4 383.8 293.1C388.8 290.8 394.2 289.8 400.2 288.8C406.3 287.8 413.8 286.8 420.2 287C426.5 287.2 432.8 289 438.5 290C444.1 291 448.9 291.2 454.1 293.1C459.2 295 465.5 298.4 469.5 301.2C473.4 304 475.4 306.5 477.8 309.9C480.1 313.2 482.6 318.5 483.7 321.2C484.8 324 484.2 324.5 484.3 326.2C484.4 328 484.9 330.4 484.1 332C483.2 333.5 480.7 335.6 479.3 335.6C477.8 335.6 476.3 333.3 475.3 332.1C474.3 331 473.1 330.3 473.2 328.4C473.3 326.6 474.7 323.7 475.9 320.9C477.1 318.1 478.2 315.1 480.7 311.8C483.1 308.5 486.8 303.9 490.8 301C494.8 298.1 499.7 296.5 504.7 294.7C509.7 292.9 514.8 291.6 520.8 290.2C526.7 288.8 533.8 286.5 540.3 286.2C546.8 286 554.1 287.4 559.9 289C565.8 290.5 570.5 293.5 575.3 295.5C580.1 297.5 584.7 298.6 588.9 301.1C593.1 303.6 597.4 307.4 600.3 310.3C603.2 313.2 605.2 315.5 606.1 318.5C607 321.5 606 325.7 605.5 328.1C605.1 330.5 604.6 332.1 603.5 332.9C602.5 333.7 600.3 333.1 599.3 333.1C598.3 333 598.4 333.3 597.5 332.5C596.7 331.8 594.7 330.6 594.3 328.6C593.9 326.6 593.6 323.6 595 320.5C596.4 317.5 600.1 313.2 602.9 310.3C605.6 307.4 607.6 305.6 611.5 303C615.3 300.4 620.9 296.8 626.2 294.7C631.6 292.5 637.7 291.3 643.5 290C649.3 288.6 655.1 286.6 661.1 286.5C667 286.5 673.3 288.3 679.1 289.5C684.9 290.7 690.3 291.8 695.7 293.8C701.1 295.7 707.4 298.2 711.3 301C715.2 303.8 716.6 307.2 719.2 310.4C721.7 313.7 725.3 317.6 726.5 320.3C727.8 322.9 727 324 726.7 326.3C726.3 328.5 725.3 332.4 724.4 333.7C723.6 335.1 721.9 334.2 721.4 334.2" fill="none" stroke="#ffffff" stroke-width="9.3" stroke-linecap="round"/><path d="M414.9 410.8Q414.9 380.9 444.9 380.9L963.7 380.9Q993.6 380.9 993.6 410.8L993.6 509Q993.6 539 963.7 539L444.9 539Q414.9 539 414.9 509Z" fill="#ffffff"/><text x="453.4" y="434.3" font-family="'Instrument Sans', sans-serif" font-weight="400" font-size="42.7" fill="#111314">Haan, pahunch gaya.</text><text x="453.4" y="483.4" font-family="'Instrument Sans', sans-serif" font-weight="400" font-size="42.7" fill="#111314">Ghar jaake call karta hoon</text><circle cx="962.8" cy="480" r="4.7" fill="#e2b540"/></g><g class="ta-moment-mummy-el ta-moment-mummy-headline"><text font-family="'Instrument Serif', sans-serif" font-weight="400" font-size="84.5" letter-spacing="-0.85" fill="#ffffff" text-anchor="start"><tspan x="86.4" y="971.4">Hands full. Mummy</tspan><tspan x="86.4" y="1059.3">still gets her reply.</tspan></text></g><g class="ta-moment-mummy-el ta-moment-mummy-brand"><svg xmlns="http://www.w3.org/2000/svg" viewBox="0 0 1000 1000" x="86.4" y="1134.1" width="70.6" height="70.6" overflow="visible"> <rect width="1000" height="1000" fill="#0F0D0B"/> <svg x="70" y="176" width="860" height="648" viewBox="170 228 680 512"> <line x1="346" y1="402" x2="270" y2="598" stroke="#E9CBA2" stroke-width="9" stroke-linecap="round"/> <line x1="444" y1="394" x2="554" y2="486" stroke="#E8A23C" stroke-width="30" stroke-dasharray="9 11"/> <line x1="668" y1="478" x2="828" y2="243" stroke="#C77A3A" stroke-width="9" stroke-linecap="round"/> <circle cx="828" cy="243" r="11" fill="#B06240"/> <rect x="308" y="269" width="132" height="132" rx="28" fill="#F4F1EA"/> <rect x="558" y="478" width="132" height="132" rx="28" fill="#F4F1EA"/> <rect x="178" y="598" width="132" height="132" rx="28" fill="#F4F1EA"/> </svg> </svg>
<text x="179.6" y="1181.8" font-family="'Instrument Sans', sans-serif" font-weight="600" font-size="34.3" letter-spacing="0.00" fill="#ffffff">Tailzu</text></g></svg>
