<svg xmlns="http://www.w3.org/2000/svg" viewBox="0 0 1080 1920" width="1080" height="1920" class="tz2-story-poll-root" role="img" aria-labelledby="tz2-story-poll-title"><title id="tz2-story-poll-title">Tailzu. You think in Hinglish. Why type in English?</title><style>@import url("https://fonts.googleapis.com/css2?family=Instrument+Serif:ital@0;1&amp;family=Instrument+Sans:wght@400;500;600&amp;family=IBM+Plex+Mono:wght@500&amp;family=Caveat:wght@500&amp;display=swap");</style><rect width="1080" height="1920" fill="#051230"/><g><svg x="86" y="304.1" width="43.2" height="32.5" viewBox="170 228 680 512" aria-hidden="true"><line x1="346" y1="402" x2="270" y2="598" stroke="#E9CBA2" stroke-width="9" stroke-linecap="round"/> <line x1="444" y1="394" x2="554" y2="486" stroke="#E8A23C" stroke-width="30" stroke-dasharray="9 11"/> <line x1="668" y1="478" x2="828" y2="243" stroke="#C77A3A" stroke-width="9" stroke-linecap="round"/> <circle cx="828" cy="243" r="11" fill="#B06240"/> <rect x="308" y="269" width="132" height="132" rx="28" fill="#F4F1EA"/> <rect x="558" y="478" width="132" height="132" rx="28" fill="#F4F1EA"/> <rect x="178" y="598" width="132" height="132" rx="28" fill="#F4F1EA"/></svg><text font-family="'Instrument Sans', system-ui, sans-serif" font-weight="600" font-size="26" fill="#eeb480"><tspan x="140.9" y="332">Tailzu</tspan></text></g><text font-family="'Instrument Serif', Georgia, serif" font-weight="400" font-size="96" fill="#eeb480"><tspan x="86" y="470">You think in Hinglish.</tspan><tspan x="86" y="566">Why type in English?</tspan></text><text font-family="'Caveat', cursive" font-weight="500" font-size="56" fill="#eeb480"><tspan x="764" y="760">be honest</tspan></text><path d="M744 742C737.5 743.7 718.1 749.8 704.8 752.3C691.4 754.9 675.3 751.6 663.9 757.4C652.6 763.3 645 778.2 636.7 787.3C628.4 796.4 617.8 807.9 614 812" fill="none" stroke="#eeb480" stroke-width="16.2" stroke-linecap="round" stroke-linejoin="round"/><g><rect x="86" y="1110" width="309" height="71.4" rx="35.7" fill="#eeb480"/><text font-family="'Instrument Sans', system-ui, sans-serif" font-weight="600" font-size="34" fill="#051230"><tspan x="123.4" y="1154.9">Get Tailzu free</tspan></text></g><path d="M-30 1500C-31.2 1499.6 -34.9 1498.8 -37.1 1497.8C-39.4 1496.7 -41.9 1495.4 -43.5 1493.8C-45.1 1492.1 -45.7 1490.5 -46.6 1487.8C-47.6 1485 -48.7 1481 -49.2 1477.4C-49.7 1473.7 -49.8 1468.8 -49.8 1466.1C-49.8 1463.4 -49.7 1462.8 -49.4 1460.9C-49.1 1459 -48.8 1456.5 -47.9 1454.5C-47.1 1452.5 -45.5 1450.8 -44.4 1448.7C-43.3 1446.7 -42.4 1444 -41.3 1442C-40.2 1439.9 -39.2 1438.2 -37.9 1436.3C-36.5 1434.3 -35.1 1432.3 -33.4 1430.2C-31.8 1428.2 -30 1425.7 -28.1 1423.9C-26.2 1422.1 -24.4 1421 -22 1419.5C-19.6 1418 -16.1 1416.9 -13.8 1415.2C-11.4 1413.4 -10.2 1410.6 -7.8 1409C-5.4 1407.3 -2.1 1406.3 0.6 1405.2C3.2 1404 5.3 1403.1 8.2 1402.2C11.1 1401.2 15 1400 18 1399.4C21 1398.8 23.4 1398.8 26.2 1398.6C29.1 1398.4 32.1 1398.5 35.1 1398.3C38.1 1398 41 1397.1 44 1396.9C47.1 1396.7 50.4 1396.9 53.5 1397.1C56.6 1397.4 59.8 1397.9 62.7 1398.5C65.6 1399.1 68.2 1400 70.9 1400.8C73.7 1401.5 76.7 1402.2 79.5 1403.2C82.2 1404.1 84.8 1405.1 87.4 1406.3C90.1 1407.4 93 1408.7 95.3 1410.1C97.7 1411.6 99.5 1413.5 101.6 1415C103.7 1416.4 105.9 1417.1 108.2 1418.6C110.5 1420.2 113.4 1422.1 115.6 1424.2C117.8 1426.2 119.9 1429 121.3 1430.9C122.7 1432.8 122.9 1433.7 124.2 1435.5C125.4 1437.2 127.7 1439.2 128.9 1441.4C130.1 1443.6 130.2 1446.4 131.3 1448.7C132.4 1451 135 1453.2 135.7 1455.3C136.4 1457.4 135 1459.4 135.4 1461.4C135.7 1463.4 137.5 1464.3 137.8 1467.1C138.1 1469.9 137.8 1474.6 137.2 1478C136.6 1481.4 135.1 1484.9 134.1 1487.5C133.1 1490 132.9 1491.3 131.2 1493.3C129.5 1495.3 126.2 1498.2 123.8 1499.2C121.5 1500.2 119.3 1499.5 117.2 1499.4C115 1499.2 113.2 1499.1 111.1 1498.3C109.1 1497.4 106.4 1496.1 104.7 1494.2C103.1 1492.2 102.1 1489.3 101 1486.6C99.9 1483.9 98.6 1481.1 98.1 1477.9C97.6 1474.7 97.8 1470 98 1467.2C98.2 1464.4 98.9 1463.4 99.3 1461.1C99.6 1458.9 99.2 1455.9 100 1453.6C100.8 1451.4 103 1449.7 104.1 1447.6C105.2 1445.6 105.5 1443.3 106.4 1441.5C107.3 1439.7 107.9 1438.6 109.4 1436.7C110.9 1434.7 113.8 1431.9 115.5 1429.8C117.2 1427.7 118 1425.9 119.7 1424.2C121.4 1422.5 123.5 1421.1 125.7 1419.4C127.8 1417.6 129.9 1415.4 132.4 1413.7C134.8 1411.9 137.7 1410 140.3 1408.9C143 1407.8 145.5 1407.9 148.2 1407C150.9 1406.1 153.9 1404.5 156.6 1403.3C159.4 1402.1 161.8 1400.6 164.5 1399.8C167.3 1398.9 170.3 1398.8 173.2 1398.3C176 1397.9 178.7 1397.2 181.7 1397.1C184.7 1396.9 187.9 1397.3 191 1397.4C194.1 1397.6 197.4 1397.7 200.3 1398C203.3 1398.2 205.7 1398.4 208.5 1398.9C211.4 1399.4 214.4 1400.3 217.5 1401C220.6 1401.7 224.3 1402.2 227.2 1403.2C230.1 1404.2 232.4 1405.8 235 1407C237.6 1408.1 240 1409 242.6 1410.1C245.2 1411.2 248.1 1412.3 250.4 1413.6C252.7 1415 254.7 1416.4 256.5 1418.2C258.4 1420 259.7 1422.3 261.5 1424.2C263.3 1426.1 265.7 1427.8 267.5 1429.7C269.3 1431.5 271 1433.4 272.4 1435.4C273.9 1437.4 275 1439.3 276.3 1441.6C277.5 1443.9 279.1 1446.9 280.1 1449C281 1451.1 281.1 1452.3 281.7 1454.1C282.4 1455.9 283.5 1457.6 284 1459.9C284.6 1462.1 284.9 1464.4 285.2 1467.4C285.5 1470.5 286.2 1474.8 285.8 1478C285.4 1481.1 283.9 1483.7 282.7 1486.2C281.5 1488.8 280.4 1491.3 278.5 1493.4C276.6 1495.5 273.5 1497.9 271.4 1498.9C269.4 1499.8 268.3 1499.3 266 1499.1C263.8 1498.9 260.4 1498.5 258.2 1497.7C256 1496.8 254.7 1496.2 253 1494.2C251.2 1492.3 248.8 1488.8 247.6 1486.2C246.4 1483.6 246 1481.8 245.7 1478.6C245.5 1475.5 245.9 1470.1 246.1 1467.2C246.3 1464.3 246.4 1463.6 246.8 1461.3C247.3 1459.1 248.3 1455.8 248.8 1453.7C249.4 1451.6 249.3 1450.9 250.1 1448.9C251 1446.9 252.8 1443.9 254 1441.9C255.2 1439.9 255.8 1438.7 257.2 1436.8C258.7 1434.8 260.8 1432.3 262.7 1430.2C264.5 1428.1 266.3 1425.9 268.3 1424.1C270.2 1422.4 272.5 1421.3 274.5 1419.7C276.5 1418.1 278.1 1416.3 280.3 1414.7C282.4 1413.1 284.8 1411.7 287.3 1410.3C289.8 1408.8 292.4 1407.3 295.2 1406C298 1404.7 301.2 1403.4 304 1402.5C306.9 1401.5 309.3 1400.8 312.3 1400.3C315.2 1399.7 318.8 1399.6 321.7 1399C324.7 1398.4 327.2 1397.2 330 1396.6C332.8 1396.1 335.6 1395.6 338.6 1395.8C341.5 1396 344.5 1397.2 347.7 1397.8C350.9 1398.3 354.9 1398.6 357.9 1399C360.9 1399.4 362.7 1399.8 365.5 1400.2C368.3 1400.7 372.1 1400.6 374.9 1401.7C377.8 1402.7 380 1405 382.6 1406.4C385.2 1407.8 388.1 1408.9 390.4 1410.3C392.8 1411.6 394.7 1413.1 396.9 1414.4C399.2 1415.7 401.8 1416.3 404 1418.1C406.1 1419.8 407.7 1423.1 409.7 1425C411.7 1426.8 414.5 1427.7 416.1 1429.4C417.7 1431.1 417.7 1433.2 419.3 1435.3C420.8 1437.4 423.9 1439.7 425.2 1441.8C426.5 1443.9 426.3 1445.8 427.1 1447.8C427.8 1449.8 429 1451.9 429.8 1453.9C430.5 1455.9 430.9 1457.8 431.5 1459.7C432.1 1461.7 433.1 1462.9 433.5 1465.7C433.8 1468.6 434.3 1473.2 433.6 1476.8C432.9 1480.4 430.7 1484.5 429.3 1487.3C427.8 1490.1 426.2 1491.7 424.7 1493.5C423.2 1495.2 422.1 1496.9 420.1 1497.9C418 1499 414.7 1499.7 412.5 1499.8C410.3 1499.8 409 1499.4 406.8 1498.3C404.6 1497.2 401.4 1495.2 399.4 1493.3C397.5 1491.3 396.3 1489.3 395.3 1486.7C394.3 1484 394 1480.7 393.4 1477.2C392.9 1473.8 392 1468.8 392 1466C392 1463.1 393.1 1461.9 393.6 1460.1C394.1 1458.2 394.2 1456.7 395 1454.9C395.8 1453.1 397.6 1451.3 398.6 1449.1C399.6 1447 400.1 1444.1 401.1 1441.8C402.1 1439.5 403.3 1437.5 404.7 1435.5C406.2 1433.6 407.8 1431.7 409.5 1429.9C411.3 1428.1 413.1 1426.5 415.2 1424.7C417.3 1423 420.1 1421.2 422.2 1419.4C424.2 1417.6 425.1 1415.5 427.4 1413.9C429.8 1412.3 433.3 1411 436.1 1409.8C438.9 1408.5 441.7 1407.7 444.1 1406.4C446.6 1405.2 448.2 1403.1 450.9 1402.3C453.6 1401.4 457.5 1402 460.5 1401.3C463.5 1400.5 466.1 1398.6 469.1 1397.8C472 1397 475.4 1396.7 478.2 1396.5C481 1396.3 482.9 1396.4 486 1396.7C489 1396.9 493.3 1397.4 496.4 1397.8C499.4 1398.2 501.6 1398.5 504.3 1399C507 1399.6 509.8 1400.4 512.7 1401C515.6 1401.7 518.6 1402 521.5 1402.8C524.4 1403.6 527.4 1404.8 530.1 1405.9C532.7 1407 535 1407.8 537.5 1409.1C539.9 1410.5 542.4 1412.4 544.9 1414C547.4 1415.5 550.1 1416.8 552.2 1418.6C554.3 1420.3 555.6 1422.7 557.5 1424.4C559.4 1426.2 562 1427.2 563.7 1429.1C565.4 1431 566.5 1433.5 568 1435.6C569.5 1437.8 571.7 1439.8 572.7 1442C573.7 1444.2 573.2 1446.6 574.1 1448.7C575.1 1450.8 577.6 1452.4 578.3 1454.4C579.1 1456.5 578.2 1459 578.6 1461.2C578.9 1463.3 580.4 1464.5 580.5 1467.2C580.7 1470 580 1474.2 579.6 1477.6C579.1 1480.9 579 1484.5 577.8 1487.3C576.6 1490 574.4 1492.3 572.5 1494.1C570.7 1496 568.7 1497.6 566.5 1498.5C564.3 1499.3 559.2 1499 559.5 1499.4C559.7 1499.7 565.3 1500.7 568.2 1500.7C571.1 1500.8 574.1 1499.7 577 1499.6C579.8 1499.5 582.4 1499.9 585.1 1500.1C587.7 1500.3 590 1500.8 592.6 1500.8C595.2 1500.8 598.2 1500.1 600.8 1500.1C603.3 1500.1 605.1 1500.7 607.7 1500.8C610.2 1500.9 613.4 1500.8 616.1 1500.7C618.7 1500.5 620.9 1499.7 623.7 1499.6C626.6 1499.6 630.1 1500 632.9 1500.2C635.7 1500.3 637.7 1500.8 640.5 1500.6C643.3 1500.4 647 1499.1 649.6 1499.1C652.1 1499.1 653.4 1500.2 655.9 1500.3C658.4 1500.5 661.6 1500 664.5 1499.9C667.4 1499.8 670.4 1499.7 673.2 1499.6C675.9 1499.5 678.3 1499.1 680.9 1499.3C683.5 1499.5 686.1 1500.5 688.9 1500.8C691.7 1501 694.8 1501 697.7 1500.9C700.5 1500.8 703.5 1500.2 705.9 1500.1C708.4 1500 709.9 1500.5 712.4 1500.3C714.9 1500.2 718.3 1499.1 721.2 1499.1C724.1 1499.2 727.4 1500.5 730 1500.6C732.6 1500.6 734.2 1499.5 736.7 1499.4C739.3 1499.3 742.9 1499.8 745.5 1499.9C748.1 1500 749.9 1499.9 752.4 1499.8C754.9 1499.7 757.9 1499.3 760.8 1499.4C763.6 1499.4 766.9 1500 769.6 1500.2C772.3 1500.4 774.4 1500.6 777 1500.5C779.7 1500.4 782.8 1500 785.5 1499.8C788.1 1499.6 790.2 1499.3 792.9 1499.3C795.6 1499.2 798.8 1499.4 801.6 1499.5C804.3 1499.6 806.7 1499.9 809.4 1500C812.1 1500 815.1 1499.8 817.8 1499.8C820.5 1499.8 822.9 1499.9 825.6 1499.8C828.2 1499.7 831 1499 833.7 1499.1C836.4 1499.2 838.9 1500 841.6 1500.2C844.3 1500.3 847.1 1500 849.9 1500.1C852.7 1500.2 855.8 1500.7 858.5 1500.6C861.2 1500.5 863.6 1499.4 866.1 1499.3C868.6 1499.3 871 1499.9 873.5 1500.1C875.9 1500.4 878 1500.7 880.8 1500.7C883.7 1500.8 887.9 1500.6 890.6 1500.6C893.3 1500.6 894.6 1500.9 896.9 1500.8C899.3 1500.8 902 1500.4 904.9 1500.3C907.7 1500.1 911.2 1500.1 914 1500.1C916.8 1500.1 919.1 1500.3 921.7 1500.3C924.2 1500.3 926.6 1500.4 929.4 1500.3C932.2 1500.2 935.6 1499.8 938.3 1499.7C941 1499.7 943 1499.8 945.7 1499.8C948.3 1499.9 952.6 1500 954 1500" fill="none" stroke="#eeb480" stroke-width="24.3" stroke-linecap="round" stroke-linejoin="round"/><path d="M970.4 1484.8C973.4 1482.1 981.7 1478.9 985.7 1479.1C989.7 1479.2 992.9 1482.4 994.6 1485.8C996.3 1489.2 997.3 1495.8 995.7 1499.5C994.1 1503.2 988.7 1507 985.1 1508C981.6 1509 977.2 1507.6 974.3 1505.5C971.4 1503.4 968.3 1499.1 967.6 1495.7C967 1492.2 967.3 1487.6 970.4 1484.8Z" fill="#cc1236"/></svg>
