<svg xmlns="http://www.w3.org/2000/svg" viewBox="0 0 1080 1350" width="1080" height="1350" role="img" aria-label="Thirty-six hours, then breakfast · Rye &amp; Rise"><style>@import url("https://fonts.googleapis.com/css2?family=Young+Serif:wght@400&family=Onest:wght@400;500;700&family=JetBrains+Mono:wght@400;500&family=Caveat:wght@400;700&display=swap");</style><style>.rr-post-b-el{transform-box:view-box}@keyframes rr-post-b-in{from{opacity:0;transform:translateY(32px)}to{opacity:1;transform:none}}@keyframes rr-post-b-fade{from{opacity:0}to{opacity:1}}.rr-post-b-t1{animation:rr-post-b-fade 500ms linear(0, 0.032, 0.09, 0.167, 0.256, 0.35, 0.444, 0.535, 0.62, 0.698, 0.767, 0.827, 0.879, 0.922, 0.957, 0.985, 1.006, 1.022, 1.033, 1.039, 1.043, 1.044, 1.044, 1.041, 1.038, 1.034, 1.03, 1.026, 1.022, 1.018, 1.015, 1.011, 1.009, 1.006, 1.004, 1.002, 1.001, 1, 0.999, 0.999, 0.998, 0.998, 0.998, 0.998, 0.998, 0.998, 0.998, 0.999, 0.999, 0.999, 0.999, 0.999, 0.999, 1, 1, 1, 1) 300ms both}.rr-post-b-t2{animation:rr-post-b-in 500ms linear(0, 0.032, 0.09, 0.167, 0.256, 0.35, 0.444, 0.535, 0.62, 0.698, 0.767, 0.827, 0.879, 0.922, 0.957, 0.985, 1.006, 1.022, 1.033, 1.039, 1.043, 1.044, 1.044, 1.041, 1.038, 1.034, 1.03, 1.026, 1.022, 1.018, 1.015, 1.011, 1.009, 1.006, 1.004, 1.002, 1.001, 1, 0.999, 0.999, 0.998, 0.998, 0.998, 0.998, 0.998, 0.998, 0.998, 0.999, 0.999, 0.999, 0.999, 0.999, 0.999, 1, 1, 1, 1) 1050ms both}.rr-post-b-t3{animation:rr-post-b-in 500ms linear(0, 0.032, 0.09, 0.167, 0.256, 0.35, 0.444, 0.535, 0.62, 0.698, 0.767, 0.827, 0.879, 0.922, 0.957, 0.985, 1.006, 1.022, 1.033, 1.039, 1.043, 1.044, 1.044, 1.041, 1.038, 1.034, 1.03, 1.026, 1.022, 1.018, 1.015, 1.011, 1.009, 1.006, 1.004, 1.002, 1.001, 1, 0.999, 0.999, 0.998, 0.998, 0.998, 0.998, 0.998, 0.998, 0.998, 0.999, 0.999, 0.999, 0.999, 0.999, 0.999, 1, 1, 1, 1) 3350ms both}.rr-post-b-t4{animation:rr-post-b-in 500ms linear(0, 0.032, 0.09, 0.167, 0.256, 0.35, 0.444, 0.535, 0.62, 0.698, 0.767, 0.827, 0.879, 0.922, 0.957, 0.985, 1.006, 1.022, 1.033, 1.039, 1.043, 1.044, 1.044, 1.041, 1.038, 1.034, 1.03, 1.026, 1.022, 1.018, 1.015, 1.011, 1.009, 1.006, 1.004, 1.002, 1.001, 1, 0.999, 0.999, 0.998, 0.998, 0.998, 0.998, 0.998, 0.998, 0.998, 0.999, 0.999, 0.999, 0.999, 0.999, 0.999, 1, 1, 1, 1) 4100ms both}@media (prefers-reduced-motion: reduce){.rr-post-b-el{animation:none!important;opacity:1!important;transform:none!important}}</style><defs></defs><g class="rr-post-b-el rr-post-b-ground"><rect width="1080" height="1350" fill="#fdbf68"/><g fill="#ffffff"><circle cx="443.8" cy="469.5" r="1.6"/><circle cx="464.2" cy="518.4" r="1.9"/><circle cx="812.1" cy="1244.4" r="1.1"/><circle cx="469.8" cy="556.4" r="2.2"/><circle cx="720.8" cy="397.5" r="1.3"/><circle cx="1064.2" cy="216.7" r="1.1"/><circle cx="1046.9" cy="182.5" r="1.1"/><circle cx="186.4" cy="668.8" r="1.4"/><circle cx="47.5" cy="1151" r="1.6"/><circle cx="684.4" cy="69.5" r="2.1"/><circle cx="171.5" cy="450.7" r="2.2"/><circle cx="1028.6" cy="188.9" r="1.5"/><circle cx="780.3" cy="454.2" r="1"/><circle cx="804.4" cy="1307.5" r="1.6"/><circle cx="221.1" cy="345" r="1.5"/><circle cx="811.6" cy="205.8" r="1.3"/><circle cx="772.5" cy="51.4" r="1"/><circle cx="640.1" cy="260.4" r="1.8"/><circle cx="367.2" cy="155.3" r="2"/><circle cx="497.3" cy="1183.3" r="1.5"/><circle cx="293.8" cy="129.5" r="1.1"/><circle cx="713" cy="1264.8" r="1"/><circle cx="52.2" cy="732.7" r="1.1"/><circle cx="657.8" cy="840.1" r="2"/><circle cx="373.4" cy="622.9" r="1.4"/><circle cx="472.9" cy="213.7" r="1.7"/><circle cx="832.8" cy="310" r="1.2"/><circle cx="360.3" cy="434.1" r="2"/><circle cx="29.3" cy="1248.3" r="1.6"/><circle cx="520.1" cy="1111.9" r="2.2"/><circle cx="773.7" cy="9.6" r="1.3"/><circle cx="894.1" cy="49.1" r="1.6"/><circle cx="129.9" cy="497.8" r="1.2"/><circle cx="496" cy="419.5" r="1.3"/><circle cx="677.4" cy="311" r="1.9"/><circle cx="814.1" cy="143.8" r="1.6"/><circle cx="1019.2" cy="602.1" r="2"/><circle cx="308.5" cy="1219.8" r="1.5"/><circle cx="835.8" cy="814.9" r="1.5"/><circle cx="357.5" cy="357.8" r="1.3"/><circle cx="629.1" cy="512.2" r="1.6"/><circle cx="958.2" cy="920.2" r="2"/><circle cx="941.3" cy="1312" r="1.6"/><circle cx="116.8" cy="247.2" r="1.9"/><circle cx="829.2" cy="476.6" r="1.6"/><circle cx="388" cy="148.2" r="2.2"/><circle cx="187.6" cy="203.7" r="2"/><circle cx="817.9" cy="468.1" r="2.2"/><circle cx="727.7" cy="660.8" r="1.4"/><circle cx="791.9" cy="619" r="1.8"/><circle cx="456.9" cy="171.9" r="1.7"/><circle cx="60.3" cy="1203.1" r="1.4"/><circle cx="981.3" cy="471.6" r="1.7"/><circle cx="947.2" cy="468.5" r="2.3"/><circle cx="724.3" cy="97.2" r="1.7"/><circle cx="548.2" cy="52.2" r="1.6"/><circle cx="86.8" cy="232.8" r="1.1"/><circle cx="39.5" cy="1194.3" r="1.6"/><circle cx="32.8" cy="812.9" r="1.2"/><circle cx="80.3" cy="619.4" r="2.1"/><circle cx="857.8" cy="36" r="1.7"/><circle cx="976" cy="532.9" r="1.9"/><circle cx="447" cy="86.1" r="1.6"/><circle cx="639.7" cy="1298.2" r="2.2"/><circle cx="709.6" cy="849.6" r="1"/><circle cx="1066.1" cy="91.9" r="1.9"/><circle cx="447.2" cy="352.9" r="1.7"/><circle cx="812.8" cy="742.3" r="1.4"/><circle cx="1001.9" cy="842" r="1.6"/><circle cx="69.2" cy="176.3" r="1.6"/><circle cx="462.4" cy="49.6" r="1.9"/><circle cx="55.1" cy="1194.1" r="1.6"/><circle cx="1055.7" cy="309.4" r="1.9"/><circle cx="384.4" cy="64.3" r="1.6"/><circle cx="854" cy="92.2" r="1.9"/><circle cx="595.5" cy="458.2" r="2.1"/><circle cx="894" cy="776.1" r="2.1"/><circle cx="580.1" cy="632.1" r="1.7"/><circle cx="288" cy="493.6" r="1.8"/><circle cx="389.8" cy="412.7" r="1.8"/><circle cx="812.6" cy="878.8" r="2.2"/><circle cx="554" cy="511.6" r="2.1"/><circle cx="718.6" cy="640.3" r="2"/><circle cx="486.3" cy="528.1" r="1.6"/><circle cx="510.1" cy="663.3" r="1.1"/><circle cx="910.7" cy="284.6" r="2"/><circle cx="847.2" cy="135.1" r="2.2"/><circle cx="921.4" cy="227.5" r="2"/><circle cx="986" cy="71.2" r="1.6"/><circle cx="18.8" cy="1044.1" r="1.3"/><circle cx="712.2" cy="437.7" r="1.2"/><circle cx="801.2" cy="16.6" r="2"/><circle cx="869" cy="675.3" r="2"/><circle cx="491.5" cy="492.4" r="2.2"/><circle cx="234.6" cy="513.1" r="1"/><circle cx="718.3" cy="134.5" r="1.9"/><circle cx="177.4" cy="250.5" r="1.9"/><circle cx="59.8" cy="919" r="1.5"/><circle cx="871.6" cy="1065.8" r="1.9"/><circle cx="589.9" cy="205.9" r="1.5"/><circle cx="811.8" cy="489.5" r="1.8"/><circle cx="594.4" cy="12.4" r="2.2"/><circle cx="446.2" cy="324.2" r="1.8"/><circle cx="961.2" cy="230.8" r="1.1"/><circle cx="645.8" cy="1316.2" r="2.2"/><circle cx="993.2" cy="980.7" r="1.1"/><circle cx="951.8" cy="330.5" r="1.4"/><circle cx="521.5" cy="124" r="1.9"/><circle cx="454.3" cy="110.5" r="1.1"/><circle cx="288.3" cy="529.1" r="1.3"/><circle cx="6.9" cy="1195.2" r="1.7"/><circle cx="976.7" cy="982.6" r="1.1"/><circle cx="285" cy="581.7" r="1.7"/><circle cx="351.7" cy="367.3" r="1.3"/><circle cx="618.9" cy="690.3" r="1.2"/><circle cx="109.5" cy="227.9" r="1.6"/><circle cx="689" cy="494.6" r="2.1"/><circle cx="640.7" cy="612.8" r="2.2"/><circle cx="447.2" cy="619.3" r="1.6"/><circle cx="507.7" cy="731.5" r="2.1"/><circle cx="677.6" cy="362" r="1.7"/><circle cx="212.4" cy="569.6" r="1.2"/><circle cx="41.6" cy="165.4" r="1.3"/><circle cx="107.6" cy="331.5" r="1.9"/><circle cx="549" cy="1333.8" r="1.5"/><circle cx="328.1" cy="736.2" r="1.1"/><circle cx="85.7" cy="258.7" r="1.1"/><circle cx="1042.1" cy="193.8" r="1.2"/><circle cx="199.9" cy="1317.4" r="1.3"/><circle cx="1066.6" cy="580.9" r="2.1"/><circle cx="375.4" cy="544.9" r="2"/><circle cx="53.4" cy="931.3" r="1.2"/><circle cx="611.1" cy="36.2" r="1.7"/><circle cx="98.9" cy="193.9" r="1.3"/><circle cx="976.4" cy="623.2" r="2.2"/><circle cx="287.4" cy="162.7" r="1.8"/><circle cx="987.1" cy="918.1" r="2.1"/><circle cx="731.1" cy="753.3" r="1.7"/><circle cx="953.2" cy="883.3" r="1.7"/><circle cx="9.6" cy="188.3" r="1.2"/><circle cx="929" cy="200.9" r="1.9"/><circle cx="924.6" cy="509.5" r="1.8"/><circle cx="885.7" cy="1055.3" r="1"/><circle cx="940.5" cy="1002.7" r="1.9"/><circle cx="752.1" cy="31.9" r="1.5"/><circle cx="1058" cy="434.1" r="1.7"/><circle cx="887.4" cy="295.2" r="2.1"/><circle cx="1070.4" cy="276.3" r="1.5"/><circle cx="564.3" cy="475.2" r="1.2"/><circle cx="1014.1" cy="922.2" r="1.6"/><circle cx="506" cy="438.6" r="1.8"/><circle cx="660.6" cy="71.4" r="2"/><circle cx="924.2" cy="216.1" r="1"/><circle cx="1034.7" cy="947.5" r="1.4"/><circle cx="382.4" cy="181.4" r="2"/><circle cx="838.8" cy="395.8" r="1.2"/><circle cx="62.6" cy="161.6" r="2.1"/><circle cx="369.5" cy="761.9" r="1.8"/><circle cx="119.8" cy="27.9" r="2.2"/><circle cx="1032.5" cy="192.3" r="1.9"/><circle cx="159.4" cy="306.9" r="1.5"/><circle cx="519" cy="70.3" r="1.8"/><circle cx="123" cy="600.2" r="2.1"/><circle cx="689.2" cy="136.8" r="1.5"/><circle cx="542.3" cy="1153.2" r="1.7"/><circle cx="185.3" cy="223.1" r="1.8"/><circle cx="49" cy="593.8" r="1.8"/><circle cx="931" cy="670.9" r="2.1"/><circle cx="720.7" cy="205.4" r="1.3"/><circle cx="995.8" cy="737.4" r="1.3"/><circle cx="163.6" cy="828.8" r="1.8"/><circle cx="242.9" cy="868.6" r="1.2"/><circle cx="472.8" cy="878" r="1.6"/><circle cx="212.8" cy="729.6" r="2.2"/><circle cx="4" cy="73.3" r="1.7"/><circle cx="80.1" cy="56.3" r="1.3"/><circle cx="204.5" cy="225.1" r="1.2"/><circle cx="506.9" cy="630" r="1.6"/><circle cx="988.3" cy="774.5" r="1.6"/><circle cx="720.8" cy="831.2" r="1.4"/><circle cx="875" cy="551.2" r="1.1"/><circle cx="1049.5" cy="177.6" r="1.6"/><circle cx="1014.6" cy="149.3" r="1.7"/><circle cx="1035.3" cy="1103.2" r="1.3"/><circle cx="954.6" cy="1306.9" r="2.2"/><circle cx="248.3" cy="867.9" r="1.6"/><circle cx="421.9" cy="250.3" r="2.2"/><circle cx="571.1" cy="291.1" r="1"/><circle cx="749" cy="57.3" r="2"/><circle cx="743.7" cy="25.7" r="1.7"/><circle cx="797.5" cy="251.4" r="1.9"/><circle cx="58.3" cy="848.1" r="1.5"/><circle cx="281.5" cy="1324.1" r="1.8"/><circle cx="362.2" cy="726.9" r="1.1"/><circle cx="334.1" cy="166.7" r="2.2"/><circle cx="0.3" cy="688" r="1.5"/><circle cx="799.4" cy="58.7" r="1.7"/><circle cx="73.9" cy="363.6" r="1.1"/><circle cx="192.1" cy="639" r="2.2"/><circle cx="209.3" cy="1107.5" r="1.4"/><circle cx="679.5" cy="1270.5" r="1.9"/><circle cx="931" cy="33.5" r="1.3"/><circle cx="201" cy="735.3" r="2"/><circle cx="565.7" cy="232.4" r="2"/><circle cx="845.7" cy="136.2" r="2.1"/><circle cx="158.5" cy="803.7" r="1"/><circle cx="630.4" cy="248.8" r="2.2"/><circle cx="1.7" cy="1061.4" r="1.3"/><circle cx="711.9" cy="333.3" r="1.9"/><circle cx="397.2" cy="1122.5" r="1.9"/><circle cx="997.1" cy="328.9" r="1.2"/><circle cx="247.5" cy="826.2" r="2.1"/><circle cx="1003.1" cy="292.9" r="2.2"/><circle cx="398.2" cy="285" r="2"/><circle cx="575.3" cy="1284.4" r="1.6"/><circle cx="644.5" cy="1313.9" r="1.3"/><circle cx="1056" cy="323.3" r="2.1"/><circle cx="772" cy="758.9" r="2.1"/><circle cx="429.3" cy="1252.1" r="1.2"/><circle cx="821.8" cy="159.9" r="1.6"/><circle cx="750.2" cy="700.4" r="1.9"/><circle cx="989.9" cy="425.7" r="1.4"/><circle cx="287.7" cy="669.4" r="1.6"/><circle cx="119.4" cy="587.1" r="1.9"/><circle cx="55.7" cy="684.5" r="1.3"/><circle cx="799.1" cy="516.5" r="2.1"/><circle cx="558.6" cy="208.4" r="1.2"/><circle cx="972.1" cy="521.6" r="1.8"/><circle cx="733.3" cy="826.7" r="1.1"/><circle cx="555.2" cy="819" r="1.4"/><circle cx="114.3" cy="442.9" r="1.6"/><circle cx="658" cy="49.7" r="1.3"/><circle cx="973.4" cy="226.4" r="1.9"/><circle cx="183.7" cy="796.5" r="1.3"/><circle cx="217.6" cy="5.2" r="1.1"/><circle cx="851.3" cy="983.8" r="1.4"/><circle cx="525" cy="117.1" r="1.3"/><circle cx="419.2" cy="101.7" r="1.5"/><circle cx="290.3" cy="404.8" r="2"/><circle cx="256.9" cy="680.2" r="1"/><circle cx="16.4" cy="893.2" r="1.9"/><circle cx="938.8" cy="531.1" r="1"/><circle cx="164.5" cy="16.5" r="1.9"/><circle cx="663.1" cy="584.8" r="1.5"/><circle cx="539.5" cy="0.7" r="1.6"/><circle cx="923.5" cy="639.5" r="1.1"/><circle cx="5.8" cy="195.2" r="1.4"/><circle cx="48.4" cy="878.9" r="2"/><circle cx="961.1" cy="1302.2" r="1"/><circle cx="528.1" cy="798.7" r="1.5"/><circle cx="863.3" cy="889.9" r="1.5"/><circle cx="895.6" cy="961.7" r="1.7"/><circle cx="538.2" cy="631.3" r="2.1"/><circle cx="112" cy="238" r="2.3"/><circle cx="393.5" cy="550.5" r="2.1"/><circle cx="1069.1" cy="446.9" r="1.3"/><circle cx="588.4" cy="605.1" r="2.2"/><circle cx="151.5" cy="280.2" r="1.4"/><circle cx="572" cy="780.1" r="1.7"/><circle cx="266.8" cy="686.4" r="2.1"/><circle cx="913.3" cy="859.5" r="1.7"/><circle cx="379.1" cy="496.4" r="1.3"/><circle cx="40.1" cy="1311" r="2.2"/><circle cx="181.2" cy="1295.9" r="2.2"/><circle cx="932.1" cy="921.8" r="1.9"/><circle cx="880.2" cy="787.1" r="1.7"/><circle cx="168.1" cy="61.2" r="1"/><circle cx="82.6" cy="1113.7" r="1.1"/><circle cx="788.9" cy="873.7" r="1.9"/><circle cx="1050.7" cy="238.4" r="2.3"/><circle cx="1030.3" cy="350.1" r="1.5"/><circle cx="1054.6" cy="142.1" r="1.9"/><circle cx="579.5" cy="547.6" r="2"/><circle cx="136.2" cy="1331.2" r="2.2"/><circle cx="229.4" cy="391.3" r="1"/><circle cx="678.3" cy="355.1" r="1.3"/><circle cx="320.7" cy="861.7" r="1.3"/><circle cx="1050.9" cy="430.6" r="2"/><circle cx="678.4" cy="788.1" r="1.9"/><circle cx="424.2" cy="1285.9" r="1.3"/><circle cx="863.6" cy="538.6" r="1.9"/><circle cx="884.3" cy="377" r="1.1"/><circle cx="541.9" cy="200.9" r="2"/><circle cx="223.3" cy="709.6" r="1.1"/><circle cx="573.3" cy="307" r="2.1"/><circle cx="1062.7" cy="801.4" r="2.2"/><circle cx="671.8" cy="886.7" r="1.7"/><circle cx="407.4" cy="534.1" r="2.2"/><circle cx="709.3" cy="108.7" r="1.6"/><circle cx="804.1" cy="438.8" r="1.5"/><circle cx="472.7" cy="874.6" r="1.3"/><circle cx="88" cy="680.8" r="1.7"/><circle cx="58.6" cy="1285.4" r="1.2"/><circle cx="729.6" cy="624.2" r="2.2"/><circle cx="617.5" cy="1294.6" r="1.7"/><circle cx="964.2" cy="919.6" r="2"/><circle cx="202.1" cy="139.4" r="1.1"/><circle cx="689.6" cy="706.8" r="1.9"/><circle cx="530.9" cy="1271.3" r="1.5"/><circle cx="59.8" cy="1174.2" r="2"/><circle cx="674.4" cy="675.4" r="1.8"/><circle cx="413.8" cy="1122.2" r="1.6"/><circle cx="893.9" cy="166.6" r="1.5"/><circle cx="725.7" cy="136.8" r="1.1"/><circle cx="956.1" cy="37.8" r="1.1"/><circle cx="535.9" cy="507.5" r="2.1"/><circle cx="331" cy="180.8" r="2.1"/><circle cx="288.6" cy="1292.7" r="1.4"/><circle cx="286.2" cy="74.1" r="2.3"/><circle cx="933.9" cy="967.7" r="1.9"/><circle cx="1017.3" cy="57.7" r="1.7"/><circle cx="420.9" cy="244.7" r="1.6"/><circle cx="744.5" cy="569.1" r="2.2"/><circle cx="628.7" cy="269.2" r="2.1"/><circle cx="485.5" cy="747" r="1.6"/><circle cx="767" cy="317.2" r="1.3"/><circle cx="781.5" cy="19.7" r="2.2"/><circle cx="190.4" cy="1237.7" r="1.1"/><circle cx="331.1" cy="537.7" r="1.4"/><circle cx="114.6" cy="873.1" r="1.4"/><circle cx="398.5" cy="331.1" r="1.6"/><circle cx="972.4" cy="1251.4" r="1.6"/><circle cx="546.8" cy="700.7" r="1.7"/><circle cx="851" cy="695.1" r="1"/><circle cx="484.6" cy="1280.4" r="2.1"/><circle cx="574.6" cy="0.9" r="1.7"/><circle cx="787.7" cy="857.3" r="2.3"/><circle cx="318.7" cy="496.7" r="1.7"/><circle cx="871.5" cy="1070.1" r="1.8"/></g></g><g class="rr-post-b-el rr-post-b-art rr-post-b-t1"><g transform="translate(151.5 86.4) scale(1.9423)"><defs><clipPath id="rr-post-b-fld0"><path d="M 128 74 C 226 28, 372 72, 364 190 C 358 300, 272 378, 176 352 C 112 334, 146 268, 104 230 C 62 192, 52 112, 128 74 Z"/></clipPath></defs><g transform="translate(5 3.8)"><path d="M 128 74 C 226 28, 372 72, 364 190 C 358 300, 272 378, 176 352 C 112 334, 146 268, 104 230 C 62 192, 52 112, 128 74 Z" fill="#cc1236"/><g fill="#fdbf68" clip-path="url(#rr-post-b-fld0)"><rect x="115.8" y="61.3" width="20" height="2.5" rx="0.9"/><rect x="127" y="71.9" width="19.3" height="1.8" rx="0.9"/><rect x="102.2" y="81.8" width="12.7" height="1.2" rx="0.9"/><rect x="95.9" y="90.3" width="9.7" height="2" rx="0.9"/><rect x="132" y="102.3" width="30.1" height="1.3" rx="0.9"/><rect x="88.6" y="110.9" width="23.8" height="2.3" rx="0.9"/><rect x="99.5" y="121.4" width="29.8" height="1.2" rx="0.9"/><rect x="111.7" y="133.2" width="12.2" height="2.3" rx="0.9"/><rect x="108.5" y="141.7" width="34.1" height="2.4" rx="0.9"/><rect x="110.1" y="151.2" width="8.3" height="1.7" rx="0.9"/><rect x="101" y="161.2" width="28.9" height="1.4" rx="0.9"/><rect x="130" y="173.2" width="23" height="2.6" rx="0.9"/><rect x="106.5" y="180.3" width="32.3" height="1.1" rx="0.9"/><rect x="89.9" y="193.4" width="22" height="1.2" rx="0.9"/><rect x="118.4" y="202.4" width="16.1" height="1.8" rx="0.9"/><rect x="92.5" y="212.8" width="12.9" height="1.5" rx="0.9"/><rect x="120.6" y="223.3" width="30.6" height="2" rx="0.9"/><rect x="124.6" y="233.2" width="13.8" height="1.9" rx="0.9"/><rect x="97.3" y="241.3" width="33.7" height="1.3" rx="0.9"/><rect x="88.6" y="252.8" width="33" height="1.3" rx="0.9"/><rect x="101.6" y="261.4" width="13.3" height="2.5" rx="0.9"/><rect x="108.3" y="273.5" width="12.7" height="1.4" rx="0.9"/><rect x="123.4" y="281.3" width="17.7" height="2.1" rx="0.9"/><rect x="96.8" y="291.3" width="35.1" height="2.4" rx="0.9"/><rect x="90.7" y="302.9" width="34" height="2.2" rx="0.9"/><rect x="116.3" y="310.4" width="31.6" height="1.4" rx="0.9"/><rect x="100.8" y="322" width="10.3" height="2.3" rx="0.9"/><rect x="92.1" y="331.7" width="16.9" height="2.3" rx="0.9"/><rect x="122.5" y="343.5" width="28.3" height="2.2" rx="0.9"/><rect x="119.6" y="352.6" width="8.8" height="1" rx="0.9"/></g><path d="M363.8 88.1L348.8 90.8L358.6 102.3L344 98.3L347.9 112.9L336.5 102.9L333.5 117.8L327.6 103.9L318.5 116L319.2 100.9L305.8 107.9L313 94.5L297.8 95L310.1 86.1L296.2 79.9L311.2 77.2L301.4 65.7L316 69.7L312.1 55.1L323.5 65.1L326.5 50.2L332.4 64.1L341.5 52L340.8 67.1L354.2 60.1L347 73.5L362.2 73L349.9 81.9Z" fill="#ffffff"/><path d="M 150 300 Q 134.2 267.3 98 270 Q 113.8 302.7 150 300 Z" fill="#00978d"/><path d="M 176 248 Q 214.6 250.8 231.4 216 Q 192.8 213.2 176 248 Z" fill="#00978d"/><path d="M 196 208 Q 174.1 177.6 137.7 186.8 Q 159.7 217.2 196 208 Z" fill="#00978d"/><path d="M 222 160 Q 257.2 168.9 278.4 139.5 Q 243.2 130.6 222 160 Z" fill="#00978d"/><path d="M 236 120 Q 244.3 87.2 216.8 67.4 Q 208.5 100.2 236 120 Z" fill="#00978d"/></g><path d="M 128 74 C 226 28, 372 72, 364 190 C 358 300, 272 378, 176 352 C 112 334, 146 268, 104 230 C 62 192, 52 112, 128 74 Z" fill="none" stroke="#111314" stroke-width="2.3" stroke-dasharray="620 260" stroke-linecap="round"/><path d="M 120 360 C 170 280, 210 200, 240 110" fill="none" stroke="#111314" stroke-width="6.394439617723718" stroke-linecap="round"/><path d="M 150 300 L 108.4 276" stroke="#111314" stroke-width="2.335360556038227" stroke-linecap="round"/><path d="M 176 248 L 220.3 222.4" stroke="#111314" stroke-width="2.335360556038227" stroke-linecap="round"/><path d="M 196 208 L 149.4 191" stroke="#111314" stroke-width="2.335360556038227" stroke-linecap="round"/><path d="M 222 160 L 267.1 143.6" stroke="#111314" stroke-width="2.335360556038227" stroke-linecap="round"/><path d="M 236 120 L 220.7 77.9" stroke="#111314" stroke-width="2.335360556038227" stroke-linecap="round"/><path d="M96 120L83.1 123.1L80 136L76.9 123.1L64 120L76.9 116.9L80 104L83.1 116.9Z" fill="#111314"/></g></g><g class="rr-post-b-el rr-post-b-headline rr-post-b-t2"><text font-family="'Young Serif', sans-serif" font-weight="400" font-size="81.8" letter-spacing="-1.64" fill="#111314" text-anchor="start"><tspan x="86.4" y="969.0">Thirty-six hours,</tspan><tspan x="86.4" y="1059.9">then breakfast</tspan></text></g><g class="rr-post-b-el rr-post-b-brand rr-post-b-t3"><text x="86.4" y="1165.9" font-family="'Young Serif', sans-serif" font-weight="400" font-size="35.3" letter-spacing="5.64" fill="#111314">RYE &amp; RISE</text></g><g class="rr-post-b-el rr-post-b-cta rr-post-b-t4"><path d="M 574 1131.5 H 968.7 L 948.1 1207.5 H 553.5 Z" fill="#111314" stroke="#111314" stroke-width="9.1" stroke-linejoin="round"/><text x="761.1" y="1181.6" text-anchor="middle" font-family="'Young Serif', sans-serif" font-weight="400" font-size="34.6" letter-spacing="0.7" fill="#ffffff">Pre-order tonight</text></g></svg>
