<svg xmlns="http://www.w3.org/2000/svg" viewBox="0 0 1920 1080" width="1920" height="1080" role="img" aria-label="Bread before work · Rye &amp; Rise"><style>@import url("https://fonts.googleapis.com/css2?family=Young+Serif:wght@400&family=Onest:wght@400;500;700&family=JetBrains+Mono:wght@400;500&family=Caveat:wght@400;700&display=swap");</style><defs></defs><g class="rr-thumb-el rr-thumb-ground"><rect width="1920" height="1080" fill="#fdbf68"/><g fill="#ffffff"><circle cx="282" cy="28.6" r="1.3"/><circle cx="1037.9" cy="75.5" r="2.1"/><circle cx="1336" cy="711.3" r="1.1"/><circle cx="1263.8" cy="989.7" r="1.4"/><circle cx="903" cy="743.7" r="1.8"/><circle cx="1440.6" cy="116.3" r="1.3"/><circle cx="720" cy="22" r="1.7"/><circle cx="477" cy="932.4" r="1.1"/><circle cx="715" cy="983" r="1.7"/><circle cx="1353.5" cy="1078.8" r="1.3"/><circle cx="185" cy="18.2" r="1.8"/><circle cx="943.3" cy="782.6" r="2"/><circle cx="1837.9" cy="964.9" r="1.7"/><circle cx="1790.6" cy="679.7" r="2.1"/><circle cx="1531.4" cy="706.9" r="2"/><circle cx="1624.7" cy="978" r="1.3"/><circle cx="1886.1" cy="977.1" r="1.3"/><circle cx="970.3" cy="860.1" r="1.4"/><circle cx="1132.7" cy="904.6" r="1"/><circle cx="1147" cy="182.8" r="1.2"/><circle cx="510.3" cy="908" r="1.9"/><circle cx="1119" cy="279.3" r="2.1"/><circle cx="1694.4" cy="852.5" r="1.8"/><circle cx="1565.4" cy="628.8" r="1.7"/><circle cx="1594.1" cy="885" r="1.1"/><circle cx="1074.8" cy="809.7" r="2.2"/><circle cx="1608.6" cy="802.6" r="1.3"/><circle cx="91.4" cy="1032.3" r="1.7"/><circle cx="1247.4" cy="248.2" r="2.2"/><circle cx="169.6" cy="944.5" r="1.5"/><circle cx="1458.4" cy="1005.2" r="1.7"/><circle cx="832" cy="70.7" r="1"/><circle cx="1106.9" cy="277" r="1.6"/><circle cx="376.9" cy="762.3" r="1.5"/><circle cx="1231.1" cy="134.1" r="1.8"/><circle cx="1608.9" cy="103.1" r="1.4"/><circle cx="1826.6" cy="664.5" r="1.8"/><circle cx="1406.7" cy="657.7" r="2"/><circle cx="573.5" cy="947.5" r="1.6"/><circle cx="800.7" cy="70.3" r="1.9"/><circle cx="666.2" cy="988.9" r="1.1"/><circle cx="1546.1" cy="386.8" r="2.1"/><circle cx="1688" cy="744" r="1.1"/><circle cx="488.3" cy="11.9" r="1.9"/><circle cx="1216.7" cy="1006.6" r="1.9"/><circle cx="246.3" cy="29.8" r="1.1"/><circle cx="1674.5" cy="573.9" r="1.7"/><circle cx="1429.6" cy="364.3" r="2"/><circle cx="1187.1" cy="141.3" r="2"/><circle cx="1638.7" cy="299.5" r="1.3"/><circle cx="54.6" cy="750.1" r="1.2"/><circle cx="1144" cy="429.6" r="2.2"/><circle cx="135.6" cy="56.5" r="1.3"/><circle cx="1331.6" cy="267.3" r="1.2"/><circle cx="1601" cy="57" r="2.1"/><circle cx="1678.1" cy="48.3" r="2.2"/><circle cx="1767.2" cy="688.2" r="1.3"/><circle cx="1089.3" cy="380.3" r="1.1"/><circle cx="11.6" cy="528.9" r="1.3"/><circle cx="988.9" cy="62.2" r="1.6"/><circle cx="355.8" cy="1012.8" r="1.2"/><circle cx="362" cy="962.7" r="1.7"/><circle cx="1519" cy="469.3" r="1.6"/><circle cx="44.1" cy="889.4" r="1.3"/><circle cx="532.1" cy="1039.4" r="1.6"/><circle cx="1463" cy="944.5" r="2.2"/><circle cx="1051.3" cy="710.2" r="1.1"/><circle cx="1089.8" cy="226.1" r="1.4"/><circle cx="1514.2" cy="385.6" r="1.9"/><circle cx="626.5" cy="1067.6" r="1.4"/><circle cx="1580.6" cy="199.2" r="1.5"/><circle cx="1423.7" cy="38.4" r="1.8"/><circle cx="594.5" cy="1077.6" r="2.1"/><circle cx="1024.6" cy="94.2" r="1.5"/><circle cx="1797.7" cy="1042.1" r="1.4"/><circle cx="58.7" cy="500.8" r="1.3"/><circle cx="1372.4" cy="189.3" r="1.2"/><circle cx="1429.1" cy="183" r="2"/><circle cx="1630.3" cy="384.8" r="1.9"/><circle cx="1034.4" cy="492.6" r="1.5"/><circle cx="969.7" cy="987.1" r="1.8"/><circle cx="768.1" cy="52.4" r="1.2"/><circle cx="995.6" cy="759.9" r="1.5"/><circle cx="1425.7" cy="735.2" r="1.3"/><circle cx="964.7" cy="620.2" r="1.9"/><circle cx="1781.6" cy="794.2" r="1.6"/><circle cx="1889.7" cy="348.4" r="1.5"/><circle cx="32.8" cy="678.7" r="1.1"/><circle cx="711.6" cy="30.5" r="1"/><circle cx="915.9" cy="886.6" r="1.4"/><circle cx="40" cy="733.6" r="1"/><circle cx="1018.4" cy="121.3" r="1.2"/><circle cx="49.1" cy="931.5" r="1.7"/><circle cx="1607.9" cy="872" r="1.7"/><circle cx="163.6" cy="873.8" r="2"/><circle cx="1314.5" cy="852.2" r="2.1"/><circle cx="171.4" cy="942.5" r="2.1"/><circle cx="645.1" cy="889.2" r="2"/><circle cx="1131.9" cy="325.8" r="1.4"/><circle cx="1550" cy="652.6" r="1.1"/><circle cx="1112" cy="904.1" r="1.5"/><circle cx="1616.3" cy="815.9" r="1.2"/><circle cx="1450" cy="618.5" r="1.8"/><circle cx="1901" cy="1050.5" r="1.1"/><circle cx="1524.6" cy="858.6" r="2.1"/><circle cx="1341.3" cy="357.6" r="1.2"/><circle cx="1463.6" cy="1012.8" r="1.5"/><circle cx="820.8" cy="25.5" r="1.1"/><circle cx="653.8" cy="830.2" r="2.1"/><circle cx="1628.7" cy="948.3" r="2.2"/><circle cx="239.7" cy="854.3" r="2.1"/><circle cx="807.6" cy="898.8" r="1.4"/><circle cx="1684.1" cy="25" r="1.7"/><circle cx="1548.4" cy="270.5" r="1.9"/><circle cx="1406.7" cy="319.9" r="1.4"/><circle cx="1303.4" cy="361" r="2"/><circle cx="1495.1" cy="267.7" r="1.3"/><circle cx="1809.7" cy="1077.5" r="1.5"/><circle cx="404.8" cy="745.1" r="1.4"/><circle cx="234" cy="38.6" r="2.2"/><circle cx="403.6" cy="785.1" r="1.3"/><circle cx="648.7" cy="757" r="1.5"/><circle cx="1637.1" cy="958.5" r="2"/><circle cx="1767.2" cy="114.9" r="1.3"/><circle cx="1772" cy="18.2" r="1.9"/><circle cx="1408" cy="273.9" r="2.1"/><circle cx="393.1" cy="982.7" r="1.3"/><circle cx="1901.7" cy="901.8" r="1.8"/><circle cx="1747.1" cy="110" r="2.3"/><circle cx="1898.3" cy="628.9" r="2.1"/><circle cx="745.7" cy="74.4" r="2.1"/><circle cx="665.6" cy="0.4" r="1.3"/><circle cx="1830.3" cy="279.6" r="1.9"/><circle cx="937.1" cy="862.5" r="1.9"/><circle cx="1746.2" cy="539.6" r="2.1"/><circle cx="105.1" cy="995.5" r="2"/><circle cx="1547.8" cy="176.8" r="2.3"/><circle cx="733.3" cy="1041.6" r="1"/><circle cx="917.2" cy="729.9" r="1.2"/><circle cx="1631" cy="1022.5" r="1.4"/><circle cx="336.6" cy="50.6" r="1.4"/><circle cx="38.1" cy="506.1" r="1.8"/><circle cx="601.6" cy="864" r="1.7"/><circle cx="1067.8" cy="779.2" r="1.5"/><circle cx="547.4" cy="1039.4" r="1.2"/><circle cx="1305.1" cy="246" r="1.4"/><circle cx="1530.1" cy="21.9" r="1.8"/><circle cx="1402.1" cy="657.4" r="1.1"/><circle cx="1495.8" cy="195.6" r="1.6"/><circle cx="1067.2" cy="823.4" r="1.6"/><circle cx="954.8" cy="1002.2" r="1.5"/><circle cx="1563.2" cy="860.7" r="1.4"/><circle cx="659" cy="744.7" r="2.2"/><circle cx="1544.8" cy="468.5" r="1.6"/><circle cx="1903.8" cy="733.8" r="1.1"/><circle cx="206.1" cy="72.1" r="1.2"/><circle cx="81.4" cy="921.1" r="2"/><circle cx="915.3" cy="944.2" r="2.3"/><circle cx="970.8" cy="634.7" r="2"/><circle cx="1541.8" cy="23.2" r="1.5"/><circle cx="1848.9" cy="264" r="1.3"/><circle cx="196.8" cy="922.7" r="1.5"/><circle cx="1690.4" cy="170.7" r="1.2"/><circle cx="1485.8" cy="828.5" r="1"/><circle cx="1268" cy="384.7" r="2.1"/><circle cx="1383.6" cy="1073.1" r="2.1"/><circle cx="954.8" cy="163.5" r="2.1"/><circle cx="401.8" cy="893.4" r="1.2"/><circle cx="1350.9" cy="179.6" r="2"/><circle cx="1242.4" cy="457.6" r="1.4"/><circle cx="1799.2" cy="583.9" r="1.8"/><circle cx="1466.4" cy="638" r="1.2"/><circle cx="1685.7" cy="274.8" r="1.3"/><circle cx="1519.3" cy="215.7" r="1.8"/><circle cx="1464.5" cy="173.4" r="1.7"/><circle cx="896.2" cy="786.1" r="1.1"/><circle cx="194.5" cy="1007.9" r="2"/><circle cx="1823.5" cy="139.8" r="1.5"/><circle cx="671.6" cy="943.7" r="1.1"/><circle cx="1588" cy="768" r="1.8"/><circle cx="1790.2" cy="570.9" r="2"/><circle cx="1291.9" cy="911.6" r="2"/><circle cx="1570.7" cy="33.8" r="1.9"/><circle cx="1259.2" cy="700.1" r="1.7"/><circle cx="1790" cy="574.4" r="2.1"/><circle cx="1143.5" cy="734.6" r="1.1"/><circle cx="1089.8" cy="752.2" r="1.1"/><circle cx="1323.2" cy="895.5" r="1.8"/><circle cx="1851.7" cy="383.2" r="1"/><circle cx="1732" cy="1047" r="1.8"/><circle cx="1900.2" cy="330.9" r="1.6"/><circle cx="1612.2" cy="741.5" r="2.1"/><circle cx="550.5" cy="1028.2" r="2.1"/><circle cx="1459.3" cy="282.3" r="1.5"/><circle cx="1410.9" cy="646.5" r="1"/><circle cx="987.3" cy="246.9" r="1.7"/><circle cx="738.4" cy="768.5" r="1.9"/><circle cx="1137.5" cy="647.6" r="2.2"/><circle cx="1711.6" cy="768.6" r="1.8"/><circle cx="972.3" cy="549.1" r="2"/><circle cx="48.8" cy="950.8" r="2"/><circle cx="2.8" cy="129.2" r="1"/><circle cx="1757.5" cy="1048.3" r="2.1"/><circle cx="1226.3" cy="742.9" r="1.7"/><circle cx="280.3" cy="859.3" r="2"/><circle cx="617.6" cy="823.8" r="2"/><circle cx="1315.9" cy="15.3" r="1.1"/><circle cx="1044.8" cy="333.4" r="1.2"/><circle cx="887.4" cy="72.2" r="1.7"/><circle cx="1736.8" cy="743" r="1"/><circle cx="1497.8" cy="699.3" r="1.3"/><circle cx="1000.7" cy="345.8" r="2"/><circle cx="1573.9" cy="558" r="1"/><circle cx="1581.3" cy="200" r="2.1"/><circle cx="1098.2" cy="678.1" r="2.2"/><circle cx="1277.9" cy="397.2" r="2.1"/><circle cx="961.2" cy="354.7" r="1"/><circle cx="1078" cy="733.5" r="2.2"/><circle cx="554.5" cy="16.7" r="1"/><circle cx="1475.3" cy="357.5" r="2"/><circle cx="1171.2" cy="247.1" r="1.3"/><circle cx="1514.2" cy="110.6" r="1.9"/><circle cx="484.4" cy="1002.6" r="1.3"/><circle cx="1114.5" cy="250.6" r="1.5"/><circle cx="1252.8" cy="168.4" r="1.3"/><circle cx="1063.6" cy="484" r="1.4"/><circle cx="963.1" cy="991.4" r="1.2"/><circle cx="1072.6" cy="310.7" r="1.8"/><circle cx="742.6" cy="53" r="1.6"/><circle cx="1171.8" cy="128" r="1.2"/><circle cx="1319.2" cy="43.7" r="1.2"/><circle cx="1184.4" cy="121.5" r="2.1"/><circle cx="1767.6" cy="794.5" r="2.3"/><circle cx="388.2" cy="758" r="1.6"/><circle cx="1499.5" cy="333.9" r="1.9"/><circle cx="9.2" cy="718.1" r="1.4"/><circle cx="1117.8" cy="653.1" r="2"/><circle cx="435" cy="866.6" r="1.1"/><circle cx="1524.2" cy="662" r="1.9"/><circle cx="1917.3" cy="320.7" r="1.1"/><circle cx="1879.5" cy="528.6" r="1.1"/><circle cx="1125.1" cy="1048.5" r="1.9"/><circle cx="1892.7" cy="538.5" r="1.2"/><circle cx="1848.4" cy="511.3" r="1.9"/><circle cx="1135.7" cy="411.2" r="1.2"/><circle cx="1743.4" cy="872.6" r="1"/><circle cx="1656" cy="788.8" r="1.5"/><circle cx="1883.3" cy="77.3" r="1.1"/><circle cx="1796.5" cy="104.7" r="1.5"/><circle cx="93.2" cy="1065.6" r="2.2"/><circle cx="1879.5" cy="307.8" r="2"/><circle cx="676.4" cy="877" r="2"/><circle cx="1220.7" cy="1018.3" r="1"/><circle cx="1181.7" cy="392.3" r="1.3"/><circle cx="1861" cy="723.3" r="1.6"/><circle cx="1404.5" cy="277.6" r="2.1"/><circle cx="1675.5" cy="536" r="1.7"/><circle cx="600.2" cy="1065.1" r="1.5"/><circle cx="1781.3" cy="1023" r="2.1"/><circle cx="1676.6" cy="941.2" r="2"/><circle cx="1627.1" cy="407.1" r="1.7"/><circle cx="218.3" cy="810.2" r="2.1"/><circle cx="1684.9" cy="679.5" r="1.4"/><circle cx="78.2" cy="902" r="1.9"/><circle cx="6.4" cy="1007.1" r="1.6"/><circle cx="974.2" cy="2.2" r="1.4"/><circle cx="1635.1" cy="48.7" r="1.3"/><circle cx="1392.5" cy="76.9" r="2.2"/><circle cx="1416.4" cy="374" r="2.2"/><circle cx="1534.9" cy="709.4" r="1.4"/><circle cx="1577.5" cy="476.5" r="1.6"/><circle cx="1919.1" cy="981.9" r="1.3"/><circle cx="498.9" cy="827.4" r="1.1"/><circle cx="784.4" cy="1009.5" r="1.9"/><circle cx="1417.1" cy="320" r="1.1"/><circle cx="1801.7" cy="1059.9" r="1"/><circle cx="1065.5" cy="826.9" r="1.7"/><circle cx="1056.4" cy="255.9" r="1.6"/><circle cx="979.9" cy="999.2" r="1.9"/><circle cx="122.2" cy="874.7" r="2.1"/><circle cx="1282.3" cy="583.2" r="1.3"/><circle cx="1151.7" cy="177.1" r="2.1"/><circle cx="420.5" cy="1073.5" r="1.1"/><circle cx="1115.4" cy="261.1" r="1.4"/><circle cx="1236.2" cy="714.2" r="1.8"/><circle cx="1570" cy="417" r="2"/><circle cx="45.8" cy="439.1" r="1.1"/><circle cx="1729.5" cy="197.8" r="2.1"/><circle cx="1356.9" cy="412.3" r="2.2"/><circle cx="475.7" cy="788.8" r="1.5"/><circle cx="1872.6" cy="487.8" r="1.4"/><circle cx="770.2" cy="61.7" r="1.8"/><circle cx="1603.4" cy="329.3" r="1.3"/><circle cx="1009.6" cy="650.2" r="1"/><circle cx="1270.7" cy="438.2" r="2.2"/><circle cx="528.9" cy="820.4" r="1.8"/><circle cx="1229.3" cy="482.9" r="1.7"/><circle cx="1001.9" cy="130.7" r="2.1"/><circle cx="1282.6" cy="199.4" r="1.4"/><circle cx="538.3" cy="933" r="1.7"/><circle cx="1635.2" cy="99.3" r="1.1"/><circle cx="1396.8" cy="1028.4" r="1.7"/><circle cx="1502.5" cy="346" r="1.4"/><circle cx="1780.3" cy="170" r="1"/><circle cx="76" cy="1068.5" r="2"/><circle cx="644.3" cy="767.2" r="1.1"/><circle cx="41.2" cy="972.5" r="1.8"/><circle cx="655.2" cy="925.2" r="1.1"/><circle cx="1462.4" cy="183.9" r="2.2"/><circle cx="1484.4" cy="652.5" r="1.6"/><circle cx="252" cy="792.6" r="2"/><circle cx="300.2" cy="774.3" r="1.1"/><circle cx="997.2" cy="994.2" r="1"/><circle cx="815.6" cy="869.5" r="1.1"/><circle cx="1066.8" cy="90.1" r="1"/><circle cx="27.3" cy="511.1" r="2"/><circle cx="100.1" cy="927.9" r="1.4"/><circle cx="399.5" cy="858" r="1"/><circle cx="1440.3" cy="86.1" r="1.2"/><circle cx="977.6" cy="572" r="2.1"/><circle cx="1029.3" cy="554.1" r="1.7"/><circle cx="164.5" cy="924.6" r="1.1"/><circle cx="325.1" cy="966.5" r="2.2"/><circle cx="1290.5" cy="874.4" r="1"/><circle cx="1617.7" cy="205.4" r="1.3"/><circle cx="717" cy="41.5" r="1.9"/><circle cx="645.9" cy="1042.2" r="1.6"/><circle cx="1218.2" cy="791.1" r="2.2"/><circle cx="1384.4" cy="725.4" r="1.8"/><circle cx="817.4" cy="1024" r="1"/><circle cx="1215.8" cy="482.7" r="1.6"/><circle cx="1827.1" cy="441.1" r="1.3"/><circle cx="582.5" cy="757.5" r="2"/><circle cx="1506.6" cy="344.9" r="1.4"/><circle cx="1536.1" cy="285.7" r="2"/><circle cx="18" cy="859.1" r="2.2"/><circle cx="1254" cy="669.9" r="1.8"/><circle cx="1048.3" cy="675.3" r="1.4"/><circle cx="1286.3" cy="283.7" r="1.2"/><circle cx="1335.3" cy="505.5" r="2"/><circle cx="728.6" cy="977.1" r="1.4"/><circle cx="700.5" cy="1071.1" r="1.1"/><circle cx="1360.3" cy="904.9" r="1.7"/><circle cx="1056.6" cy="60.4" r="1.7"/><circle cx="702.3" cy="765.8" r="1.9"/><circle cx="523.2" cy="26.9" r="1.3"/><circle cx="990.5" cy="223.7" r="1.1"/><circle cx="1265.6" cy="762.8" r="1.4"/><circle cx="1661.1" cy="715.6" r="1.9"/><circle cx="1021.7" cy="28.7" r="1.7"/><circle cx="142.9" cy="738.9" r="1.8"/><circle cx="1762.5" cy="539.7" r="1.7"/><circle cx="686.9" cy="47.6" r="1.5"/><circle cx="1752.6" cy="1040.7" r="1.1"/><circle cx="1255.6" cy="5.3" r="1.9"/><circle cx="1343.2" cy="388" r="1"/><circle cx="1874.6" cy="229" r="1.6"/><circle cx="1615.6" cy="831.2" r="1.5"/><circle cx="1445.5" cy="143.5" r="1.1"/><circle cx="1423.9" cy="127.7" r="1.2"/><circle cx="465.6" cy="756.9" r="1.4"/><circle cx="14.5" cy="872.6" r="2.2"/><circle cx="1210.4" cy="99.1" r="1.1"/><circle cx="1484.1" cy="435.9" r="1.7"/><circle cx="1794.6" cy="218.2" r="2.2"/><circle cx="1802" cy="572.3" r="1.8"/><circle cx="1628.9" cy="878.7" r="1.9"/><circle cx="966.2" cy="883.6" r="2.3"/><circle cx="1164.4" cy="373.3" r="1.7"/><circle cx="1510.8" cy="346.7" r="1.4"/><circle cx="1338.5" cy="256.3" r="2"/><circle cx="1459.2" cy="6.7" r="1.1"/><circle cx="1849.4" cy="165" r="1.6"/><circle cx="1316" cy="1078.9" r="1.1"/><circle cx="1304.3" cy="968.2" r="1.8"/><circle cx="1811.9" cy="932.6" r="1.9"/><circle cx="1769.3" cy="708.4" r="1.6"/><circle cx="8.1" cy="468.4" r="1.5"/><circle cx="549.1" cy="779.8" r="1.2"/><circle cx="71" cy="274.4" r="1.4"/><circle cx="522" cy="51.9" r="2.1"/><circle cx="1533.3" cy="974.1" r="2.1"/><circle cx="148.9" cy="766.6" r="2"/><circle cx="951.8" cy="783.3" r="1.2"/><circle cx="1344.3" cy="276.5" r="1.7"/><circle cx="1575.8" cy="216" r="2.1"/><circle cx="1372.1" cy="256" r="1.6"/><circle cx="14.3" cy="28.4" r="1.5"/><circle cx="1270.8" cy="623.9" r="1.5"/><circle cx="58.2" cy="151.6" r="1.5"/><circle cx="130.7" cy="866.8" r="2"/><circle cx="1825.1" cy="776.4" r="1.3"/><circle cx="1699.2" cy="348.3" r="2.1"/><circle cx="1839.3" cy="88.8" r="1.4"/><circle cx="220.6" cy="28.2" r="1.6"/><circle cx="1000.9" cy="630.9" r="2.1"/><circle cx="1781" cy="1009" r="1.4"/><circle cx="172.5" cy="952.7" r="2.1"/><circle cx="1142.4" cy="71.1" r="1.6"/><circle cx="1168.8" cy="152.5" r="1.2"/><circle cx="38.9" cy="944.2" r="1.4"/><circle cx="1268.6" cy="501.5" r="1.9"/><circle cx="1440.7" cy="188" r="1.8"/><circle cx="1495.3" cy="257.8" r="1.3"/><circle cx="1061.1" cy="849.5" r="1.5"/><circle cx="1590.3" cy="812.8" r="2.2"/><circle cx="1489.5" cy="468.4" r="1.6"/><circle cx="620.6" cy="1029.4" r="1.6"/><circle cx="101.9" cy="24.2" r="1.5"/><circle cx="1302.1" cy="832.4" r="1.7"/><circle cx="110.5" cy="804.6" r="1.6"/><circle cx="157.1" cy="15.6" r="1.6"/><circle cx="1694.8" cy="651.9" r="1.5"/><circle cx="1293.7" cy="447.9" r="1.2"/><circle cx="21.4" cy="404.4" r="1.5"/><circle cx="1538.1" cy="352.8" r="1.4"/><circle cx="1677.3" cy="800.2" r="1.6"/><circle cx="476" cy="964.5" r="1.1"/><circle cx="69.5" cy="733.2" r="2.1"/><circle cx="1548.2" cy="903" r="2.2"/><circle cx="1592.4" cy="917.9" r="1"/><circle cx="1399.9" cy="813.4" r="1.8"/><circle cx="630.7" cy="757.7" r="2.1"/><circle cx="1843.3" cy="311.7" r="2.2"/><circle cx="426.9" cy="1025.5" r="1.8"/><circle cx="946.1" cy="766.1" r="1.4"/><circle cx="1146.9" cy="793.8" r="1.1"/><circle cx="1158.6" cy="859.4" r="1.4"/></g></g><g class="rr-thumb-el rr-thumb-art"><g transform="translate(1150.8 86.4) scale(1.6330)"><defs><clipPath id="rr-thumb-fld0"><path d="M 128 74 C 226 28, 372 72, 364 190 C 358 300, 272 378, 176 352 C 112 334, 146 268, 104 230 C 62 192, 52 112, 128 74 Z"/></clipPath></defs><g transform="translate(6 4.5)"><path d="M 128 74 C 226 28, 372 72, 364 190 C 358 300, 272 378, 176 352 C 112 334, 146 268, 104 230 C 62 192, 52 112, 128 74 Z" fill="#cc1236"/><g fill="#fdbf68" clip-path="url(#rr-thumb-fld0)"><rect x="114" y="63.2" width="34.8" height="2.4" rx="0.9"/><rect x="94.3" y="72.3" width="20.3" height="1.8" rx="0.9"/><rect x="99.5" y="81" width="23.1" height="2.3" rx="0.9"/><rect x="124.5" y="92.6" width="31.2" height="1.9" rx="0.9"/><rect x="100.2" y="101.3" width="16.2" height="2" rx="0.9"/><rect x="120.3" y="111.5" width="24.7" height="2.1" rx="0.9"/><rect x="103.1" y="123" width="32.7" height="1.8" rx="0.9"/><rect x="102.3" y="133.5" width="7.1" height="2.5" rx="0.9"/><rect x="101.5" y="141.3" width="24.5" height="1" rx="0.9"/><rect x="119.8" y="150.1" width="33.8" height="2.2" rx="0.9"/><rect x="103.9" y="163" width="33.5" height="1.2" rx="0.9"/><rect x="103.6" y="171.1" width="16.9" height="1.9" rx="0.9"/><rect x="105.3" y="183.3" width="27.4" height="2.1" rx="0.9"/><rect x="113.7" y="193.8" width="29.2" height="1.9" rx="0.9"/><rect x="89.6" y="203.1" width="26.2" height="2.3" rx="0.9"/><rect x="88.1" y="213.9" width="34.1" height="1.4" rx="0.9"/><rect x="122" y="221.7" width="9.1" height="1.6" rx="0.9"/><rect x="90.6" y="231.6" width="16.1" height="2.1" rx="0.9"/><rect x="124.8" y="241.1" width="15.4" height="1.1" rx="0.9"/><rect x="98" y="250.4" width="26.8" height="1.7" rx="0.9"/><rect x="99.5" y="262.7" width="6.5" height="1.7" rx="0.9"/><rect x="93.5" y="272.2" width="14.7" height="1.6" rx="0.9"/><rect x="110.7" y="282.1" width="21.6" height="2.4" rx="0.9"/><rect x="94.9" y="293.4" width="8.2" height="2.4" rx="0.9"/><rect x="120.1" y="301.8" width="30.7" height="2.5" rx="0.9"/><rect x="92.8" y="313.6" width="17" height="1.4" rx="0.9"/><rect x="99.7" y="321.1" width="29.6" height="2.2" rx="0.9"/><rect x="92.9" y="333.8" width="8.8" height="1.7" rx="0.9"/><rect x="124.9" y="344" width="8.2" height="1.8" rx="0.9"/><rect x="101.4" y="352.1" width="14.7" height="2.1" rx="0.9"/></g><path d="M375.8 82.1L360.8 84.8L370.6 96.3L356 92.3L359.9 106.9L348.5 96.9L345.5 111.8L339.6 97.9L330.5 110L331.2 94.9L317.8 101.9L325 88.5L309.8 89L322.1 80.1L308.2 73.9L323.2 71.2L313.4 59.7L328 63.7L324.1 49.1L335.5 59.1L338.5 44.2L344.4 58.1L353.5 46L352.8 61.1L366.2 54.1L359 67.5L374.2 67L361.9 75.9Z" fill="#ffffff"/><path d="M -64 22 C -50 2, -24 -16, 0 -26 C 20 -18, 42 -4, 58 8 C 63 12, 58 19, 52 16 C 36 8, 16 -2, 2 -6 C -14 2, -34 18, -50 32 C -56 37, -68 30, -64 22 Z" fill="#ffffff" transform="translate(70 360) rotate(-12) scale(0.7)"/><path d="M 144 178 C 148 126, 210 110, 236 166 L 300 254 L 258 246 C 226 266, 156 242, 144 178 Z" fill="#00978d"/><path d="M 160 138 L 190 92 L 198 136 Z" fill="#00978d"/><path d="M 64 286 Q 72.4 267.3 58.1 252.5 Q 49.7 271.3 64 286 Z" fill="#ffffff"/></g><path d="M 128 74 C 226 28, 372 72, 364 190 C 358 300, 272 378, 176 352 C 112 334, 146 268, 104 230 C 62 192, 52 112, 128 74 Z" fill="none" stroke="#111314" stroke-width="2.8" stroke-dasharray="620 260" stroke-linecap="round"/><path d="M 6 300 C 120 290, 250 286, 394 262" fill="none" stroke="#111314" stroke-width="7.605820105820106" stroke-linecap="round"/><path d="M 86 292 L 62 270" stroke="#111314" stroke-width="4.563492063492063" stroke-linecap="round"/><path d="M 62 270 Q 52.5 250.4 30.8 252 Q 40.3 271.6 62 270 Z" fill="#111314"/><path d="M 190 186 C 216 156, 256 186, 276 232 C 236 226, 202 220, 190 186 Z" fill="#111314"/><path d="M 144 178 L 166 150 L 182 188 Z" fill="#111314"/><path d="M 146 166 L 116 180 L 146 190 Z" fill="#ffffff" stroke="#111314" stroke-width="2.7777777777777777" stroke-linejoin="round"/><g stroke="#111314" stroke-width="3.802910052910053" stroke-linecap="round"><path d="M 202 248 L 196 288"/><path d="M 222 250 L 220 286"/></g><path d="M -64 22 C -50 2, -24 -16, 0 -26 C 20 -18, 42 -4, 58 8 C 63 12, 58 19, 52 16 C 36 8, 16 -2, 2 -6 C -14 2, -34 18, -50 32 C -56 37, -68 30, -64 22 Z" fill="none" stroke="#111314" stroke-width="4" stroke-linejoin="round" transform="translate(-3.5714285714285707 -2.380952380952381) translate(70 360) rotate(-12) scale(0.7)"/><circle cx="166" cy="166" r="8" fill="#ffffff"/><circle cx="164" cy="166" r="3.4" fill="#111314"/></g></g><g class="rr-thumb-el rr-thumb-headline"><path d="M 86.4 357.4 H 237.6" stroke="#111314" stroke-width="8.1" stroke-linecap="round"/><path d="M280.8 357.4L268.7 360.5L265.7 372.5L262.6 360.5L250.6 357.4L262.6 354.4L265.7 342.3L268.7 354.4Z" fill="#111314"/><text font-family="'Young Serif', sans-serif" font-weight="400" font-size="113.4" letter-spacing="-2.27" fill="#111314" text-anchor="start"><tspan x="86.4" y="183.9">Bread</tspan><tspan x="86.4" y="309.8">before work</tspan></text></g></svg>
