<svg xmlns="http://www.w3.org/2000/svg" viewBox="0 0 1080 1527" width="1080" height="1527" role="img" aria-label="Precise and technical · Rye &amp; Rise"><style>@import url("https://fonts.googleapis.com/css2?family=Limelight:wght@400&family=Jost:wght@400;500;700&family=IBM+Plex+Mono:wght@400;500&display=swap");</style><defs></defs><g class="rr-precise-tech-3-el rr-precise-tech-3-ground"><rect width="1080" height="1527" fill="#112f2c"/><rect x="0" y="850.3" width="1080" height="676.7" fill="#111314"/></g><g class="rr-precise-tech-3-el rr-precise-tech-3-art"><clipPath id="rr-precise-tech-3-a0clip"><rect x="0" y="0" width="1080" height="850.3"/></clipPath><g clip-path="url(#rr-precise-tech-3-a0clip)"><defs><linearGradient id="rr-precise-tech-3-a0sky" x1="0" y1="0" x2="0" y2="1"><stop offset="0" stop-color="#112f2c"/><stop offset="1" stop-color="#112f2c"/></linearGradient><linearGradient id="rr-precise-tech-3-a0floor" x1="0" y1="0" x2="0" y2="1"><stop offset="0" stop-color="#96d1aa"/><stop offset="1" stop-color="#111314"/></linearGradient><radialGradient id="rr-precise-tech-3-a0sun" cx="0.42" cy="0.38" r="0.62"><stop offset="0" stop-color="#ffffff"/><stop offset="1" stop-color="#b71f57"/></radialGradient></defs><rect x="0" y="0" width="1080" height="458.9" fill="url(#rr-precise-tech-3-a0sky)"/><circle cx="540" cy="458.9" r="149" fill="url(#rr-precise-tech-3-a0sun)"/><rect x="40.9" y="347.1" width="297.9" height="8.2" rx="4.1" fill="#ffffff"/><rect x="82.6" y="373.4" width="256.2" height="7.2" rx="3.6" fill="#ffffff"/><rect x="124.4" y="399.6" width="214.5" height="6.2" rx="3.1" fill="#ffffff"/><rect x="166.1" y="425.8" width="172.8" height="5.2" rx="2.6" fill="#ffffff"/><rect x="207.8" y="452" width="131.1" height="4.3" rx="2.1" fill="#ffffff"/><rect x="741.1" y="347.1" width="297.9" height="8.2" rx="4.1" fill="#ffffff"/><rect x="741.1" y="373.4" width="256.2" height="7.2" rx="3.6" fill="#ffffff"/><rect x="741.1" y="399.6" width="214.5" height="6.2" rx="3.1" fill="#ffffff"/><rect x="741.1" y="425.8" width="172.8" height="5.2" rx="2.6" fill="#ffffff"/><rect x="741.1" y="452" width="131.1" height="4.3" rx="2.1" fill="#ffffff"/><rect x="0" y="458.9" width="1080" height="391.5" fill="url(#rr-precise-tech-3-a0floor)"/><rect x="535.9" y="464.3" width="8.2" height="1.5" fill="#111314"/><rect x="521.1" y="483.7" width="37.7" height="1.5" fill="#111314"/><rect x="494" y="519.6" width="92.1" height="2.3" fill="#111314"/><rect x="453.3" y="573.2" width="173.4" height="4.3" fill="#111314"/><rect x="398.3" y="645.6" width="283.3" height="7.1" fill="#111314"/><rect x="328.4" y="737.8" width="423.2" height="10.6" fill="#111314"/><rect x="243" y="850.3" width="594" height="14.9" fill="#111314"/><path d="M-65.9,850.3 L540,458.9 L-42.1,850.3 Z" fill="#ffffff"/><path d="M314.2,850.3 L540,458.9 L338.1,850.3 Z" fill="#ffffff"/><path d="M741.9,850.3 L540,458.9 L765.8,850.3 Z" fill="#ffffff"/><path d="M1122.1,850.3 L540,458.9 L1145.9,850.3 Z" fill="#ffffff"/></g></g><g class="rr-precise-tech-3-el rr-precise-tech-3-headline"><text font-family="'Jost', sans-serif" font-weight="700" font-size="103.7" letter-spacing="-1.56" fill="#ffffff" text-anchor="start"><tspan x="86.4" y="988.1">Precise and</tspan><tspan x="86.4" y="1098.0">technical</tspan></text></g><g class="rr-precise-tech-3-el rr-precise-tech-3-subhead"><text font-family="'Jost', sans-serif" font-weight="400" font-size="38.0" letter-spacing="0.19" fill="#ffffff" text-anchor="start"><tspan x="86.4" y="1270.2">Software, engineering,</tspan><tspan x="86.4" y="1316.6">data, developer tools.</tspan></text></g><g class="rr-precise-tech-3-el rr-precise-tech-3-brand"><text x="86.4" y="1192.9" font-family="'Limelight', sans-serif" font-weight="400" font-size="40.7" letter-spacing="6.52" fill="#ffffff">RYE &amp; RISE</text></g><g class="rr-precise-tech-3-el rr-precise-tech-3-cta"><rect x="86.4" y="1370.7" width="395.3" height="58.4" rx="29.2" fill="#ffffff"/><text x="284" y="1408.7" text-anchor="middle" font-family="'Jost', sans-serif" font-weight="700" font-size="24.3" letter-spacing="2.4" fill="#111314">RECIPE PRECISE-TECH-3</text></g></svg>
